if (_typeface_js && _typeface_js.loadFace) _typeface_js.loadFace({"glyphs":{"0":{"ha":1142,"x_min":54,"x_max":1092,"o":"m 882 676 l 885 674 l 361 689 l 354 249 l 874 224 l 882 676 m 1039 315 q 771 -17 1001 -12 l 340 -32 q 56 308 92 -26 l 54 719 q 347 1088 76 1078 l 815 1071 q 1072 729 1092 1058 l 1039 315 z "},"1":{"ha":549,"x_min":17,"x_max":494,"o":"m 456 -12 l 217 -22 l 232 714 l 133 647 l 17 911 l 200 1106 l 494 1076 l 456 -12 z "},"2":{"ha":1051,"x_min":53,"x_max":1001,"o":"m 1000 726 q 667 386 974 389 l 339 389 q 231 231 231 378 l 1001 261 l 946 -14 l 53 -47 l 79 286 q 417 543 71 539 l 796 532 q 861 607 858 529 q 797 682 864 685 l 168 644 l 129 1081 l 639 1078 q 1000 740 999 1067 l 1000 726 z "},"3":{"ha":988,"x_min":60,"x_max":943,"o":"m 928 310 q 593 -15 893 10 l 92 -46 l 69 254 l 729 265 q 813 325 801 256 q 749 392 822 396 l 344 401 l 338 574 l 567 694 l 61 667 l 60 1106 l 921 1046 l 900 764 l 592 611 q 935 346 943 638 l 928 310 z "},"4":{"ha":868,"x_min":19,"x_max":819,"o":"m 642 679 l 326 346 l 622 361 l 642 679 m 819 115 l 743 114 l 740 -18 l 458 -12 l 482 124 l 39 94 l 19 326 l 500 1113 l 751 1085 l 740 361 l 808 367 l 819 115 z "},"5":{"ha":1036,"x_min":53,"x_max":986,"o":"m 986 310 q 957 174 983 242 q 822 18 926 86 q 638 -18 760 -21 l 132 14 l 104 235 l 793 261 q 874 328 874 261 q 806 399 874 394 l 90 381 l 53 1103 l 950 1063 l 961 657 l 254 665 l 239 549 l 665 542 q 986 310 974 542 z "},"6":{"ha":1083,"x_min":53,"x_max":1033,"o":"m 308 397 q 224 329 231 404 q 301 249 218 256 l 728 256 q 808 324 807 247 q 718 400 813 400 l 308 397 m 693 592 q 1033 371 999 597 l 1031 317 q 688 -24 1015 -3 l 408 -8 q 65 304 92 3 l 54 697 q 457 1092 53 1068 l 976 1083 l 969 668 l 392 672 q 310 554 285 653 q 446 582 374 582 l 693 592 z "},"7":{"ha":969,"x_min":39,"x_max":946,"o":"m 946 1097 l 533 -32 l 232 -14 l 576 681 l 56 660 l 39 1094 l 946 1097 z "},"8":{"ha":1142,"x_min":43,"x_max":1090,"o":"m 417 406 q 313 336 321 414 q 386 256 306 258 l 697 258 q 779 336 779 265 q 697 399 779 410 l 417 406 m 461 664 q 394 603 401 664 q 449 539 389 543 l 828 524 q 901 607 893 528 q 831 688 910 686 l 461 664 m 740 1100 q 1076 688 1090 1096 q 940 464 1072 542 q 1078 243 1078 426 q 732 -17 1053 -10 l 451 -21 q 103 215 103 -24 q 258 454 106 376 q 96 847 43 536 q 442 1093 183 1093 l 740 1100 z "},"9":{"ha":1089,"x_min":46,"x_max":1035,"o":"m 379 675 q 257 592 274 674 q 318 489 242 513 l 675 468 q 785 558 775 454 q 663 667 794 664 l 379 675 m 775 361 q 622 315 722 324 l 419 319 q 46 711 65 317 q 392 1086 50 1071 l 710 1096 q 1035 729 1032 1108 l 1029 361 q 635 -31 1008 -11 l 138 3 l 140 235 l 660 206 q 775 361 790 203 z "}," ":{"ha":404,"x_min":0,"x_max":0,"o":""},"$":{"ha":826,"x_min":31,"x_max":786,"o":"m 404 629 q 290 569 290 621 q 410 517 292 518 l 404 629 m 503 297 q 585 357 579 297 q 494 414 590 417 l 497 297 l 503 297 m 778 304 q 474 131 776 142 l 474 18 l 361 18 l 361 131 l 57 135 l 96 329 l 385 306 l 385 406 l 363 404 q 44 653 31 407 q 356 915 60 906 l 382 919 l 385 1038 l 497 1038 l 497 921 l 779 931 l 769 599 l 511 625 l 507 524 q 785 353 786 532 l 778 304 z "},"%":{"ha":951,"x_min":44,"x_max":901,"o":"m 292 771 q 151 692 149 761 q 254 624 156 624 q 372 685 353 624 q 292 771 392 747 m 715 194 q 590 115 588 183 q 686 47 594 47 q 796 108 776 47 q 715 194 815 171 m 901 125 q 736 -19 856 -15 l 650 -19 q 499 138 501 -15 l 485 308 l 331 -31 l 144 -12 l 428 610 q 307 538 363 539 l 221 542 q 50 738 68 535 l 44 899 q 215 1085 56 1081 l 306 1088 q 461 911 463 1088 l 460 672 l 619 1100 l 865 1089 l 522 449 q 654 493 590 492 l 738 492 q 894 329 853 483 l 894 326 l 901 125 z "},"&":{"ha":993,"x_min":51,"x_max":958,"o":"m 315 411 q 225 335 228 414 q 290 244 222 257 l 458 221 l 315 411 m 958 1 l 632 -33 l 564 50 q 329 -25 539 -19 q 132 85 208 -17 q 58 365 56 179 l 54 376 q 96 547 51 464 q 225 649 136 635 l 86 889 l 74 1090 l 769 1064 l 806 706 l 374 704 l 596 492 l 632 561 l 936 556 l 689 278 l 958 1 z "},"'":{"ha":313,"x_min":33,"x_max":279,"o":"m 263 994 l 168 744 l 64 846 l 138 978 l 33 968 l 49 1188 l 279 1164 l 263 994 z "},"(":{"ha":324,"x_min":54,"x_max":278,"o":"m 274 -118 l 204 -118 q 57 100 60 -128 l 54 957 q 217 1206 69 1192 l 278 1204 l 272 1036 l 207 1042 q 204 21 203 21 l 276 21 l 274 -118 z "},")":{"ha":328,"x_min":42,"x_max":278,"o":"m 258 107 q 117 -118 254 -112 l 47 -117 l 57 29 l 147 25 q 117 1040 118 1042 l 42 1042 l 43 1199 l 117 1206 q 278 943 275 1196 l 258 107 z "},"*":{"ha":1086,"x_min":18,"x_max":1054,"o":"m 532 742 l 713 1203 l 1026 1028 l 681 732 q 773 728 682 732 q 1054 717 864 724 l 981 374 l 610 607 l 733 113 l 432 125 l 497 601 l 139 303 l 18 604 q 444 717 21 607 q 178 911 179 913 q 209 935 192 922 q 247 965 226 949 q 336 1034 283 993 q 460 1133 389 1075 l 532 742 z "},"+":{"ha":503,"x_min":24,"x_max":479,"o":"m 479 461 l 349 458 l 339 243 l 171 235 l 160 422 l 32 432 l 24 613 l 161 604 l 169 800 l 358 813 l 314 599 l 474 604 l 479 461 z "},",":{"ha":293,"x_min":33,"x_max":260,"o":"m 244 6 l 156 -217 l 58 -125 l 124 -15 l 33 -17 l 42 157 l 260 171 l 244 6 z "},"-":{"ha":547,"x_min":61,"x_max":492,"o":"m 460 379 l 64 374 l 61 667 l 492 663 l 460 379 z "},".":{"ha":346,"x_min":61,"x_max":289,"o":"m 272 -17 l 63 -19 l 61 168 l 289 165 l 272 -17 z "},"/":{"ha":517,"x_min":8,"x_max":501,"o":"m 501 1089 l 211 -31 l 8 -17 l 381 1086 l 501 1089 z "},":":{"ha":358,"x_min":54,"x_max":301,"o":"m 282 -17 l 71 -19 l 69 168 l 299 165 l 282 -17 m 288 486 l 61 496 l 54 696 l 301 706 l 288 486 z "},";":{"ha":322,"x_min":43,"x_max":283,"o":"m 268 496 l 50 493 l 51 694 l 283 692 l 268 496 m 267 -1 l 168 -212 l 67 -124 l 138 -22 l 49 -18 l 43 160 l 267 171 l 267 -1 z "},"<":{"ha":413,"x_min":8,"x_max":378,"o":"m 368 299 l 256 117 l 8 522 l 290 929 l 378 729 l 197 544 l 368 299 z "},"=":{"ha":490,"x_min":56,"x_max":433,"o":"m 407 314 l 71 311 l 68 463 l 431 461 l 407 314 m 410 569 l 60 579 l 56 735 l 433 751 l 410 569 z "},">":{"ha":415,"x_min":33,"x_max":404,"o":"m 404 517 l 157 114 l 39 300 l 189 514 l 33 728 l 146 931 l 404 517 z "},"?":{"ha":864,"x_min":42,"x_max":838,"o":"m 475 -17 l 213 -21 l 210 168 l 494 165 l 475 -17 m 824 682 q 753 486 825 544 q 578 413 679 429 q 476 290 475 396 l 479 231 l 204 236 q 272 474 171 397 q 544 542 382 551 q 660 608 647 539 q 538 685 672 679 l 42 674 l 58 1068 l 506 1092 q 750 993 663 1088 q 824 682 838 899 z "},"@":{"ha":997,"x_min":53,"x_max":958,"o":"m 413 318 l 614 314 l 614 482 l 415 488 l 413 318 m 663 364 l 679 364 q 738 533 735 364 q 692 701 740 704 l 258 708 q 181 603 165 710 l 196 288 q 264 174 206 189 l 835 146 l 838 36 l 413 49 q 67 372 69 44 l 53 678 q 317 982 53 983 l 692 964 q 899 574 958 957 q 657 246 849 239 l 396 251 q 290 350 307 256 l 282 511 q 396 653 290 651 l 575 647 q 675 514 681 640 l 663 364 z "},"[":{"ha":379,"x_min":28,"x_max":331,"o":"m 179 49 l 318 19 l 311 -160 l 69 -174 l 28 1125 l 331 1200 l 307 982 l 233 986 l 179 49 z "},"\\":{"ha":486,"x_min":-46,"x_max":425,"o":"m 425 11 l 296 -25 l -46 1114 l 204 1079 l 425 11 z "},"]":{"ha":415,"x_min":43,"x_max":356,"o":"m 267 -124 l 69 -174 l 63 25 l 165 18 l 149 933 l 64 982 l 43 1196 l 356 1204 l 267 -124 z "},"_":{"ha":767,"x_min":53,"x_max":724,"o":"m 660 -253 l 60 -282 l 53 -71 l 724 -106 l 660 -253 z "},"`":{"ha":910,"x_min":379,"x_max":685,"o":"m 685 1115 l 531 1104 l 379 1299 l 601 1285 l 685 1115 z "},"|":{"ha":244,"x_min":49,"x_max":194,"o":"m 172 -206 l 49 -217 l 71 1022 l 194 1000 l 172 -206 z "},"¨":{"ha":913,"x_min":353,"x_max":851,"o":"m 646 1119 l 649 1306 l 851 1304 l 822 1121 l 646 1119 m 353 1308 l 551 1306 l 549 1118 l 354 1117 l 353 1308 z "},"´":{"ha":742,"x_min":504,"x_max":788,"o":"m 788 1294 l 657 1106 l 504 1096 l 606 1293 l 788 1294 z "},"¸":{"ha":1125,"x_min":563,"x_max":775,"o":"m 774 -200 q 638 -324 763 -332 l 563 -310 l 565 -242 l 678 -260 q 726 -208 724 -262 q 690 -156 729 -156 l 581 -160 l 643 -22 l 742 -18 l 715 -75 q 774 -200 775 -103 z "},"ı":{"ha":342,"x_min":58,"x_max":289,"o":"m 264 -12 l 58 -21 l 71 853 l 289 838 l 264 -12 z "},"Œ":{"ha":1182,"x_min":53,"x_max":1131,"o":"m 576 667 l 231 654 l 231 243 l 569 256 l 576 667 m 1071 7 l 349 -26 q 150 86 231 -15 q 72 310 69 181 l 60 729 q 126 976 53 874 q 339 1093 199 1081 l 1131 1074 l 1093 717 l 733 685 l 742 536 l 1060 557 l 1039 386 l 710 369 l 713 260 l 1063 257 l 1071 7 z "},"ˆ":{"ha":882,"x_min":400,"x_max":785,"o":"m 785 1138 l 642 1138 l 589 1256 l 539 1135 l 400 1129 l 490 1317 l 692 1318 l 785 1138 z "},"˚":{"ha":347,"x_min":40,"x_max":303,"o":"m 181 1181 q 178 1225 181 1206 q 172 1244 175 1244 q 167 1226 169 1244 q 164 1181 164 1207 q 167 1134 164 1153 q 172 1117 171 1115 q 177 1135 175 1117 q 181 1181 179 1153 m 301 1181 q 263 1067 300 1110 q 172 1019 226 1024 q 81 1061 107 1019 q 43 1178 40 1125 q 81 1296 43 1246 q 172 1344 110 1346 q 265 1297 228 1340 q 299 1182 303 1253 l 301 1181 z "},"˜":{"ha":847,"x_min":399,"x_max":801,"o":"m 801 1264 q 674 1085 788 1083 q 563 1139 628 1082 q 539 1067 497 1196 l 399 1119 q 526 1297 417 1299 q 638 1231 578 1294 q 660 1314 699 1165 l 801 1264 z "},"–":{"ha":536,"x_min":63,"x_max":476,"o":"m 458 381 l 63 376 l 65 663 l 476 660 l 458 381 z "},"—":{"ha":1086,"x_min":63,"x_max":1029,"o":"m 997 396 l 65 374 l 63 667 l 1029 679 l 997 396 z "},"‘":{"ha":311,"x_min":36,"x_max":276,"o":"m 36 964 l 143 1213 l 244 1115 l 182 978 l 263 989 l 276 797 l 53 775 l 36 964 z "},"’":{"ha":281,"x_min":-8,"x_max":218,"o":"m 203 942 l 114 719 l 17 811 l 82 921 l -8 919 l 0 1093 l 218 1107 l 203 942 z "},"“":{"ha":576,"x_min":44,"x_max":528,"o":"m 49 964 l 169 1211 l 289 1115 l 208 988 l 275 990 l 394 1221 l 494 1117 l 417 997 l 528 989 l 525 785 l 44 794 l 49 964 z "},"”":{"ha":542,"x_min":25,"x_max":478,"o":"m 236 942 l 147 719 l 50 811 l 115 921 l 25 919 l 33 1093 l 251 1107 l 236 942 m 463 942 l 374 719 l 276 811 l 342 921 l 251 919 l 260 1093 l 478 1107 l 463 942 z "},"•":{"ha":746,"x_min":53,"x_max":690,"o":"m 246 224 q 53 379 60 235 l 64 625 q 243 806 54 779 l 490 818 q 628 769 569 811 q 690 651 689 729 l 681 374 q 479 210 678 204 l 246 224 z "},"…":{"ha":746,"x_min":61,"x_max":725,"o":"m 272 -17 l 63 -19 l 61 168 l 289 165 l 272 -17 m 490 -17 l 281 -19 l 279 168 l 507 165 l 490 -17 m 708 -17 l 499 -19 l 497 168 l 725 165 l 708 -17 z "},"ß":{"ha":1133,"x_min":56,"x_max":1088,"o":"m 69 713 q 358 1061 58 1040 l 744 1082 q 1040 844 1025 1092 q 928 535 1056 596 q 1038 224 1088 460 q 736 -28 988 -11 l 468 -18 l 468 249 l 771 254 q 822 315 810 256 q 781 378 836 375 l 468 372 l 468 553 l 639 553 q 724 611 725 553 q 685 672 721 669 q 658 674 667 674 q 649 675 650 675 l 310 664 l 306 -31 l 56 -21 l 69 713 z "},"A":{"ha":1117,"x_min":32,"x_max":1076,"o":"m 890 483 q 792 664 921 642 l 115 628 l 125 1042 l 688 1065 q 1033 679 1050 1086 l 1043 178 q 1076 0 1043 60 q 856 82 906 -15 q 688 -33 807 -19 l 396 -14 q 53 335 32 8 q 417 590 74 585 l 754 574 q 890 483 854 561 m 404 424 q 358 342 365 422 q 431 267 354 263 l 844 249 q 897 321 897 246 q 847 401 899 396 l 404 424 z "},"B":{"ha":1139,"x_min":31,"x_max":1093,"o":"m 214 547 l 636 540 q 726 608 728 553 q 689 669 726 665 q 653 675 653 674 l 210 661 l 214 547 m 232 383 l 269 242 l 757 269 q 826 315 814 254 q 785 378 840 375 l 232 383 m 31 -8 l 44 1069 l 735 1068 q 1038 850 1024 1093 q 931 532 1054 610 q 1039 228 1093 463 q 738 -21 986 -6 l 31 -8 z "},"C":{"ha":1136,"x_min":44,"x_max":1090,"o":"m 1065 143 q 831 -8 1031 24 l 371 -50 q 65 286 64 -47 l 51 738 q 361 1096 44 1053 l 832 1103 q 1090 917 1057 1074 l 900 600 l 844 704 l 226 736 l 256 225 l 817 236 l 867 293 l 1065 143 z "},"D":{"ha":1233,"x_min":89,"x_max":1176,"o":"m 819 733 l 228 667 l 229 213 l 819 208 l 819 733 m 1139 307 q 869 -24 1139 -7 l 89 -19 l 92 1060 l 857 1132 q 1167 731 1176 1122 l 1139 307 z "},"E":{"ha":1126,"x_min":38,"x_max":1071,"o":"m 721 1100 q 1058 700 1071 1072 q 690 354 1067 363 l 371 368 q 440 232 371 247 l 985 257 l 963 -12 l 475 8 q 82 357 78 -8 l 49 732 q 419 1086 38 1083 l 714 1100 l 721 1100 m 313 679 q 225 525 208 671 l 678 531 q 747 600 750 525 q 692 671 746 675 l 313 679 z "},"F":{"ha":957,"x_min":53,"x_max":911,"o":"m 840 672 l 207 636 l 213 529 l 889 496 l 835 357 l 304 374 l 278 -21 l 53 -10 l 121 1046 l 911 1139 l 840 672 z "},"G":{"ha":1143,"x_min":39,"x_max":1082,"o":"m 1022 -4 l 839 -22 l 775 142 q 576 -19 771 -26 l 368 -14 q 82 300 119 -25 l 82 743 q 353 1096 39 1101 l 797 1099 q 1082 885 1004 1071 l 835 607 l 800 681 l 247 674 q 264 249 257 258 l 696 247 q 824 381 821 235 l 519 349 l 535 544 l 1060 590 l 1022 -4 z "},"H":{"ha":1071,"x_min":15,"x_max":1011,"o":"m 939 10 l 688 -25 l 685 417 l 346 399 l 314 -26 l 139 -18 l 15 1085 l 419 1099 l 463 664 l 793 665 l 799 1100 l 1011 1082 l 939 10 z "},"I":{"ha":363,"x_min":17,"x_max":314,"o":"m 233 10 l 54 -28 l 17 1115 l 314 1079 l 233 10 z "},"J":{"ha":871,"x_min":17,"x_max":829,"o":"m 747 328 q 706 82 782 178 q 518 -25 629 -14 l 17 -44 l 22 253 l 550 231 l 485 1106 l 829 1078 l 747 328 z "},"K":{"ha":1200,"x_min":14,"x_max":1151,"o":"m 1097 0 l 738 -57 l 511 386 l 293 211 l 313 -19 l 143 -17 l 14 1085 l 426 1110 l 433 619 l 796 1138 l 1151 1107 l 681 572 l 1097 0 z "},"L":{"ha":900,"x_min":3,"x_max":900,"o":"m 874 -14 l 57 -56 l 3 1115 l 422 1079 l 318 206 l 900 258 l 874 -14 z "},"M":{"ha":1347,"x_min":35,"x_max":1286,"o":"m 474 733 l 226 715 l 214 -1 l 82 -19 l 35 1083 q 265 956 207 1079 q 465 1104 290 1088 l 999 1111 q 1286 753 1279 1096 l 1281 -36 l 942 -19 l 946 722 l 688 701 l 664 -15 l 485 -18 l 474 733 z "},"N":{"ha":1088,"x_min":18,"x_max":1028,"o":"m 18 1107 q 247 960 213 1079 q 438 1089 329 1096 l 728 1093 q 1028 764 1025 1086 l 1003 -6 l 764 -4 l 790 676 l 340 681 l 289 -35 l 51 3 l 18 1107 z "},"O":{"ha":1182,"x_min":50,"x_max":1125,"o":"m 746 699 l 222 664 l 197 210 l 778 194 l 746 699 m 1083 307 q 813 -33 1086 -10 l 379 -18 q 61 317 129 -24 l 50 750 q 136 978 63 875 q 339 1093 210 1078 l 815 1083 q 1108 722 1125 1065 l 1083 307 z "},"P":{"ha":1061,"x_min":72,"x_max":1031,"o":"m 208 665 l 197 542 l 667 519 q 739 606 726 525 q 646 685 751 685 l 208 665 m 1019 615 q 750 283 1031 317 l 368 307 l 344 -6 l 74 -28 l 72 1076 l 706 1121 q 1018 740 1010 1106 l 1019 615 z "},"Q":{"ha":1133,"x_min":32,"x_max":1083,"o":"m 882 660 l 279 657 q 296 247 275 247 l 504 244 l 483 281 l 636 490 l 764 219 q 900 310 897 232 l 882 660 m 1081 300 q 860 29 1082 47 l 933 -50 l 772 -251 l 600 -10 q 333 -10 560 -21 q 50 311 46 -8 l 32 715 q 301 1090 43 1093 l 799 1094 q 1083 726 1069 1090 l 1081 300 z "},"R":{"ha":1243,"x_min":33,"x_max":1203,"o":"m 200 639 l 210 539 l 869 497 q 947 590 951 525 q 864 657 944 657 l 200 639 m 1122 571 q 742 308 1085 314 l 1029 -8 l 663 -15 l 458 340 l 339 329 l 332 1 l 104 -17 l 33 1093 l 776 1100 q 1122 571 1203 1097 z "},"S":{"ha":1068,"x_min":46,"x_max":1008,"o":"m 1001 222 q 651 -18 996 -25 l 86 -33 l 113 263 l 726 217 q 792 292 788 210 q 710 372 797 374 l 393 379 q 63 717 46 383 q 383 1088 81 1056 l 985 1108 l 985 624 l 404 681 q 326 600 326 674 q 378 532 326 526 l 697 542 q 1007 289 1008 551 l 1001 222 z "},"T":{"ha":994,"x_min":15,"x_max":940,"o":"m 897 689 l 589 674 l 567 -3 l 363 -31 l 336 706 l 61 681 l 15 1089 l 940 1122 l 897 689 z "},"U":{"ha":1149,"x_min":24,"x_max":1096,"o":"m 1036 328 q 779 -21 1040 -44 l 385 -35 q 115 311 106 -15 l 24 1082 l 390 1100 l 438 271 l 826 275 l 878 1022 l 1096 1040 l 1036 328 z "},"V":{"ha":1157,"x_min":49,"x_max":1115,"o":"m 1115 1094 l 681 -69 l 381 -12 l 49 1032 l 290 1072 l 547 351 l 769 1081 l 1115 1094 z "},"W":{"ha":1700,"x_min":-6,"x_max":1651,"o":"m 1651 1040 l 1325 -67 l 1065 -18 l 919 499 l 676 -26 l 457 -15 l -6 1081 l 397 1063 l 574 363 l 685 1076 l 1113 1057 l 1256 335 l 1413 1013 l 1651 1040 z "},"X":{"ha":1208,"x_min":71,"x_max":1149,"o":"m 1149 1056 l 756 561 l 1093 -4 l 818 -43 l 631 353 l 424 1 l 90 -43 l 456 458 l 71 1074 l 388 1082 l 578 724 l 767 1065 l 1149 1056 z "},"Y":{"ha":1015,"x_min":56,"x_max":981,"o":"m 981 1096 l 607 297 l 621 -19 l 347 -46 l 364 324 l 56 1149 l 315 1125 l 433 628 l 690 1106 l 981 1096 z "},"Z":{"ha":1068,"x_min":57,"x_max":1006,"o":"m 961 -4 l 88 -56 l 74 232 l 636 664 l 57 651 l 69 1099 l 925 1088 l 1006 719 l 329 254 l 963 328 l 961 -4 z "},"a":{"ha":1117,"x_min":39,"x_max":1079,"o":"m 878 499 q 783 678 922 668 l 113 640 l 119 1036 l 676 1065 q 1058 669 1043 1078 l 1040 143 q 1079 8 1031 31 q 854 81 906 -12 q 689 -32 806 -19 l 397 -11 q 50 339 39 18 q 421 590 68 583 l 761 578 q 878 499 842 575 m 414 424 q 358 342 364 422 q 429 267 354 263 l 822 258 q 869 328 872 254 q 821 410 869 401 l 414 424 z "},"b":{"ha":1139,"x_min":36,"x_max":1094,"o":"m 213 547 l 633 538 q 728 610 729 553 q 689 669 726 667 q 653 675 649 671 l 200 650 l 213 547 m 218 389 l 269 243 l 760 276 q 825 315 815 256 q 785 378 838 375 l 218 389 m 36 -1 l 67 1100 l 729 1079 q 1039 850 1017 1093 q 929 533 1061 611 q 1046 226 1094 460 q 735 -22 997 -6 l 36 -1 z "},"c":{"ha":1136,"x_min":36,"x_max":1088,"o":"m 1061 143 q 835 -10 1029 24 l 374 -53 q 86 303 54 -8 l 43 728 q 363 1100 36 1056 l 835 1110 q 1088 917 1051 1071 l 906 603 l 844 706 l 239 753 l 251 233 l 804 236 l 868 293 l 1061 143 z "},"d":{"ha":1233,"x_min":69,"x_max":1168,"o":"m 808 732 l 225 663 l 240 207 l 817 221 l 808 732 m 1133 301 q 864 -29 1132 -7 l 69 -11 l 97 1074 l 863 1143 q 1158 732 1168 1117 l 1133 301 z "},"e":{"ha":1126,"x_min":46,"x_max":1068,"o":"m 721 1100 q 1067 696 1068 1072 q 685 349 1065 369 l 364 368 q 439 232 368 244 l 988 264 l 964 -8 l 463 0 q 88 360 68 -7 l 51 735 q 417 1092 46 1093 l 708 1100 l 721 1100 m 318 679 q 226 524 207 672 l 690 531 q 747 600 749 525 q 692 671 746 675 l 318 679 z "},"f":{"ha":957,"x_min":47,"x_max":917,"o":"m 831 671 l 203 632 l 214 529 l 885 510 l 833 356 l 294 374 l 269 -31 l 47 -8 l 126 1060 l 917 1150 l 831 671 z "},"g":{"ha":1143,"x_min":42,"x_max":1083,"o":"m 1010 -6 l 839 -22 l 779 140 q 574 -22 771 -22 l 364 -14 q 74 303 115 -29 l 83 749 q 344 1090 42 1107 l 786 1100 q 1083 886 1007 1072 l 842 617 l 800 682 l 235 674 q 264 249 265 258 l 700 240 q 822 381 824 235 l 519 349 l 532 543 l 1067 593 l 1010 -6 z "},"h":{"ha":1071,"x_min":-8,"x_max":1006,"o":"m 915 7 l 686 -26 l 696 411 l 344 406 l 308 -32 l 136 -18 l -8 1058 l 410 1103 l 464 669 l 794 669 l 788 1093 l 1006 1082 l 915 7 z "},"i":{"ha":363,"x_min":44,"x_max":313,"o":"m 210 7 l 54 -28 l 44 1100 l 313 1085 l 210 7 z "},"j":{"ha":871,"x_min":8,"x_max":831,"o":"m 732 326 q 708 81 783 179 q 518 -24 635 -18 l 8 -51 l 17 253 l 539 218 l 463 1115 l 831 1082 l 732 326 z "},"k":{"ha":1200,"x_min":-10,"x_max":1142,"o":"m 1082 -1 l 736 -58 l 524 379 l 292 217 l 310 -22 l 140 -17 l -10 1058 l 417 1114 l 436 626 l 800 1147 l 1142 1101 l 664 575 l 1082 -1 z "},"l":{"ha":900,"x_min":31,"x_max":888,"o":"m 868 -14 l 51 -61 l 31 1100 l 421 1088 l 304 193 l 888 258 l 868 -14 z "},"m":{"ha":1347,"x_min":17,"x_max":1292,"o":"m 458 732 l 225 714 l 231 -11 l 82 -17 l 17 1067 q 263 953 204 1079 q 465 1106 288 1089 l 1003 1119 q 1279 754 1274 1092 l 1292 -28 l 943 -17 l 961 743 l 686 706 l 649 -14 l 488 -18 l 458 732 z "},"n":{"ha":1088,"x_min":-7,"x_max":1026,"o":"m -7 1139 q 244 960 207 1079 q 438 1090 329 1094 l 725 1093 q 1025 772 1026 1086 l 982 3 l 763 -6 l 800 690 l 335 689 l 289 -21 l 57 -3 l -7 1139 z "},"o":{"ha":1182,"x_min":39,"x_max":1122,"o":"m 735 697 l 219 661 l 208 204 l 775 207 l 735 697 m 1078 301 q 807 -39 1078 -10 l 369 -14 q 63 321 129 -21 l 39 743 q 136 978 60 876 q 339 1094 214 1081 l 825 1096 q 1101 722 1122 1069 l 1078 301 z "},"p":{"ha":1061,"x_min":67,"x_max":1022,"o":"m 206 663 l 200 540 l 664 529 q 738 606 726 526 q 644 685 747 685 l 206 663 m 1017 613 q 751 286 1022 319 l 371 313 l 336 -11 l 67 -28 l 89 1088 l 710 1126 q 1015 746 1017 1114 l 1017 613 z "},"q":{"ha":1133,"x_min":36,"x_max":1088,"o":"m 875 660 l 276 653 q 296 247 285 240 l 501 242 l 483 281 l 631 485 l 757 222 q 900 311 899 233 l 875 660 m 1069 293 q 863 31 1076 47 l 933 -50 l 778 -244 l 599 -6 q 336 -10 558 -21 q 53 306 43 -4 l 43 715 q 301 1090 36 1090 l 790 1088 q 1088 732 1074 1092 l 1069 293 z "},"r":{"ha":1243,"x_min":25,"x_max":1208,"o":"m 196 635 l 211 539 l 865 511 q 946 589 950 521 q 863 657 942 657 l 196 635 m 1111 558 q 743 313 1078 317 l 1032 -3 l 653 -21 l 449 342 l 340 331 l 333 4 l 108 -11 l 25 1111 l 760 1101 q 1111 558 1208 1097 z "},"s":{"ha":1068,"x_min":36,"x_max":1007,"o":"m 1001 222 q 658 -22 993 -26 l 83 -22 l 108 258 l 714 217 q 790 292 788 210 q 710 372 793 375 l 394 383 q 56 718 36 378 q 385 1090 86 1058 l 997 1125 l 982 631 l 390 682 q 326 600 329 674 q 378 532 325 528 l 706 542 q 1007 289 1004 549 l 1001 222 z "},"t":{"ha":994,"x_min":7,"x_max":917,"o":"m 889 688 l 588 672 l 583 -12 l 363 -28 l 325 694 l 56 681 l 7 1079 l 917 1132 l 889 688 z "},"u":{"ha":1149,"x_min":7,"x_max":1090,"o":"m 1021 326 q 785 -24 1039 -44 l 383 -26 q 108 311 101 -21 l 7 1063 l 381 1103 l 442 282 l 829 281 l 858 1010 l 1090 1040 l 1021 326 z "},"v":{"ha":1157,"x_min":42,"x_max":1108,"o":"m 1108 1094 l 672 -78 l 388 -17 l 42 1056 l 288 1069 l 531 351 l 754 1063 l 1108 1094 z "},"w":{"ha":1700,"x_min":-31,"x_max":1647,"o":"m 1647 1040 l 1308 -40 l 1093 -40 l 918 472 l 689 -35 l 496 -22 l -31 1051 l 388 1067 l 576 372 l 690 1088 l 1101 1050 l 1238 338 l 1422 1019 l 1647 1040 z "},"x":{"ha":1208,"x_min":74,"x_max":1142,"o":"m 1142 1056 l 751 557 l 1108 -12 l 817 -37 l 625 347 l 415 1 l 83 -50 l 440 464 l 74 1083 l 389 1086 l 567 717 l 758 1067 l 1142 1056 z "},"y":{"ha":1015,"x_min":38,"x_max":975,"o":"m 975 1096 l 601 292 l 628 -24 l 346 -40 l 358 318 l 38 1149 l 310 1119 l 421 633 l 693 1113 l 975 1096 z "},"z":{"ha":1068,"x_min":47,"x_max":996,"o":"m 954 -4 l 82 -61 l 79 229 l 632 678 l 47 643 l 60 1099 l 907 1068 l 996 722 l 333 265 l 967 338 l 954 -4 z "},"Æ":{"ha":1010,"x_min":24,"x_max":940,"o":"m 346 343 l 511 336 l 521 660 l 346 343 m 938 -12 l 511 -43 l 501 207 l 381 208 l 321 -4 l 24 -33 l 483 1117 l 929 1113 l 910 565 l 626 551 l 629 340 l 888 385 l 922 269 l 685 215 l 692 128 l 940 156 l 938 -12 z "},"Á":{"ha":1117,"x_min":32,"x_max":1076,"o":"m 890 483 q 792 664 921 642 l 115 628 l 125 1042 l 688 1065 q 1033 679 1050 1086 l 1043 178 q 1076 0 1043 60 q 856 82 906 -15 q 688 -33 807 -19 l 396 -14 q 53 335 32 8 q 417 590 74 585 l 754 574 q 890 483 854 561 m 404 424 q 358 342 365 422 q 431 267 354 263 l 844 249 q 897 321 897 246 q 847 401 899 396 l 404 424 m 788 1294 l 657 1106 l 504 1096 l 606 1293 l 788 1294 z "},"Ã":{"ha":1117,"x_min":32,"x_max":1076,"o":"m 890 483 q 792 664 921 642 l 115 628 l 125 1042 l 688 1065 q 1033 679 1050 1086 l 1043 178 q 1076 0 1043 60 q 856 82 906 -15 q 688 -33 807 -19 l 396 -14 q 53 335 32 8 q 417 590 74 585 l 754 574 q 890 483 854 561 m 404 424 q 358 342 365 422 q 431 267 354 263 l 844 249 q 897 321 897 246 q 847 401 899 396 l 404 424 m 801 1264 q 674 1085 788 1083 q 563 1139 628 1082 q 539 1067 497 1196 l 399 1119 q 526 1297 417 1299 q 638 1231 578 1294 q 660 1314 699 1165 l 801 1264 z "},"Ç":{"ha":1136,"x_min":44,"x_max":1090,"o":"m 1065 143 q 831 -8 1031 24 l 371 -50 q 65 286 64 -47 l 51 738 q 361 1096 44 1053 l 832 1103 q 1090 917 1057 1074 l 900 600 l 844 704 l 226 736 l 256 225 l 817 236 l 867 293 l 1065 143 m 774 -200 q 638 -324 763 -332 l 563 -310 l 565 -242 l 678 -260 q 726 -208 724 -262 q 690 -156 729 -156 l 581 -160 l 643 -22 l 742 -18 l 715 -75 q 774 -200 775 -103 z "},"È":{"ha":1126,"x_min":38,"x_max":1071,"o":"m 721 1100 q 1058 700 1071 1072 q 690 354 1067 363 l 371 368 q 440 232 371 247 l 985 257 l 963 -12 l 475 8 q 82 357 78 -8 l 49 732 q 419 1086 38 1083 l 714 1100 l 721 1100 m 313 679 q 225 525 208 671 l 678 531 q 747 600 750 525 q 692 671 746 675 l 313 679 m 685 1115 l 531 1104 l 379 1299 l 601 1285 l 685 1115 z "},"É":{"ha":1126,"x_min":38,"x_max":1071,"o":"m 721 1100 q 1058 700 1071 1072 q 690 354 1067 363 l 371 368 q 440 232 371 247 l 985 257 l 963 -12 l 475 8 q 82 357 78 -8 l 49 732 q 419 1086 38 1083 l 714 1100 l 721 1100 m 313 679 q 225 525 208 671 l 678 531 q 747 600 750 525 q 692 671 746 675 l 313 679 m 788 1294 l 657 1106 l 504 1096 l 606 1293 l 788 1294 z "},"À":{"ha":1117,"x_min":32,"x_max":1076,"o":"m 890 483 q 792 664 921 642 l 115 628 l 125 1042 l 688 1065 q 1033 679 1050 1086 l 1043 178 q 1076 0 1043 60 q 856 82 906 -15 q 688 -33 807 -19 l 396 -14 q 53 335 32 8 q 417 590 74 585 l 754 574 q 890 483 854 561 m 404 424 q 358 342 365 422 q 431 267 354 263 l 844 249 q 897 321 897 246 q 847 401 899 396 l 404 424 m 685 1115 l 531 1104 l 379 1299 l 601 1285 l 685 1115 z "},"Â":{"ha":1117,"x_min":32,"x_max":1076,"o":"m 890 483 q 792 664 921 642 l 115 628 l 125 1042 l 688 1065 q 1033 679 1050 1086 l 1043 178 q 1076 0 1043 60 q 856 82 906 -15 q 688 -33 807 -19 l 396 -14 q 53 335 32 8 q 417 590 74 585 l 754 574 q 890 483 854 561 m 404 424 q 358 342 365 422 q 431 267 354 263 l 844 249 q 897 321 897 246 q 847 401 899 396 l 404 424 m 785 1138 l 642 1138 l 589 1256 l 539 1135 l 400 1129 l 490 1317 l 692 1318 l 785 1138 z "},"Ä":{"ha":1117,"x_min":32,"x_max":1076,"o":"m 890 483 q 792 664 921 642 l 115 628 l 125 1042 l 688 1065 q 1033 679 1050 1086 l 1043 178 q 1076 0 1043 60 q 856 82 906 -15 q 688 -33 807 -19 l 396 -14 q 53 335 32 8 q 417 590 74 585 l 754 574 q 890 483 854 561 m 404 424 q 358 342 365 422 q 431 267 354 263 l 844 249 q 897 321 897 246 q 847 401 899 396 l 404 424 m 646 1119 l 649 1306 l 851 1304 l 822 1121 l 646 1119 m 353 1308 l 551 1306 l 549 1118 l 354 1117 l 353 1308 z "},"Å":{"ha":1117,"x_min":32,"x_max":1076,"o":"m 890 483 q 792 664 921 642 l 115 628 l 125 1042 l 688 1065 q 1033 679 1050 1086 l 1043 178 q 1076 0 1043 60 q 856 82 906 -15 q 688 -33 807 -19 l 396 -14 q 53 335 32 8 q 417 590 74 585 l 754 574 q 890 483 854 561 m 404 424 q 358 342 365 422 q 431 267 354 263 l 844 249 q 897 321 897 246 q 847 401 899 396 l 404 424 m 574 1101 q 600 1047 574 1069 q 663 1025 626 1025 q 725 1047 699 1025 q 751 1101 751 1069 q 725 1156 751 1133 q 663 1178 699 1178 q 600 1156 626 1178 q 574 1101 574 1133 m 471 1157 q 485 1230 471 1196 q 525 1289 500 1264 q 584 1328 550 1314 q 657 1343 618 1343 q 730 1328 696 1343 q 790 1289 764 1314 q 830 1230 815 1264 q 844 1157 844 1196 q 830 1085 844 1118 q 790 1026 815 1051 q 730 987 764 1001 q 657 972 696 972 q 584 987 618 972 q 525 1026 550 1001 q 485 1085 500 1051 q 471 1157 471 1118 z "},"Ê":{"ha":1126,"x_min":38,"x_max":1071,"o":"m 721 1100 q 1058 700 1071 1072 q 690 354 1067 363 l 371 368 q 440 232 371 247 l 985 257 l 963 -12 l 475 8 q 82 357 78 -8 l 49 732 q 419 1086 38 1083 l 714 1100 l 721 1100 m 313 679 q 225 525 208 671 l 678 531 q 747 600 750 525 q 692 671 746 675 l 313 679 m 785 1138 l 642 1138 l 589 1256 l 539 1135 l 400 1129 l 490 1317 l 692 1318 l 785 1138 z "},"Ë":{"ha":1126,"x_min":38,"x_max":1071,"o":"m 721 1100 q 1058 700 1071 1072 q 690 354 1067 363 l 371 368 q 440 232 371 247 l 985 257 l 963 -12 l 475 8 q 82 357 78 -8 l 49 732 q 419 1086 38 1083 l 714 1100 l 721 1100 m 313 679 q 225 525 208 671 l 678 531 q 747 600 750 525 q 692 671 746 675 l 313 679 m 646 1119 l 649 1306 l 851 1304 l 822 1121 l 646 1119 m 353 1308 l 551 1306 l 549 1118 l 354 1117 l 353 1308 z "},"Ì":{"ha":363,"x_min":-22,"x_max":314,"o":"m 233 10 l 54 -28 l 17 1115 l 314 1079 l 233 10 m 283 1115 l 129 1104 l -22 1299 l 200 1285 l 283 1115 z "},"Í":{"ha":363,"x_min":17,"x_max":335,"o":"m 233 10 l 54 -28 l 17 1115 l 314 1079 l 233 10 m 335 1294 l 204 1106 l 51 1096 l 153 1293 l 335 1294 z "},"Î":{"ha":363,"x_min":-18,"x_max":367,"o":"m 233 10 l 54 -28 l 17 1115 l 314 1079 l 233 10 m 367 1138 l 224 1138 l 171 1256 l 121 1135 l -18 1129 l 72 1317 l 274 1318 l 367 1138 z "},"Ï":{"ha":363,"x_min":-71,"x_max":428,"o":"m 233 10 l 54 -28 l 17 1115 l 314 1079 l 233 10 m 222 1119 l 225 1306 l 428 1304 l 399 1121 l 222 1119 m -71 1308 l 128 1306 l 125 1118 l -69 1117 l -71 1308 z "},"Ñ":{"ha":1088,"x_min":18,"x_max":1028,"o":"m 18 1107 q 247 960 213 1079 q 438 1089 329 1096 l 728 1093 q 1028 764 1025 1086 l 1003 -6 l 764 -4 l 790 676 l 340 681 l 289 -35 l 51 3 l 18 1107 m 801 1264 q 674 1085 788 1083 q 563 1139 628 1082 q 539 1067 497 1196 l 399 1119 q 526 1297 417 1299 q 638 1231 578 1294 q 660 1314 699 1165 l 801 1264 z "},"Ò":{"ha":1182,"x_min":50,"x_max":1125,"o":"m 746 699 l 222 664 l 197 210 l 778 194 l 746 699 m 1083 307 q 813 -33 1086 -10 l 379 -18 q 61 317 129 -24 l 50 750 q 136 978 63 875 q 339 1093 210 1078 l 815 1083 q 1108 722 1125 1065 l 1083 307 m 685 1115 l 531 1104 l 379 1299 l 601 1285 l 685 1115 z "},"Ó":{"ha":1182,"x_min":50,"x_max":1125,"o":"m 746 699 l 222 664 l 197 210 l 778 194 l 746 699 m 1083 307 q 813 -33 1086 -10 l 379 -18 q 61 317 129 -24 l 50 750 q 136 978 63 875 q 339 1093 210 1078 l 815 1083 q 1108 722 1125 1065 l 1083 307 m 788 1294 l 657 1106 l 504 1096 l 606 1293 l 788 1294 z "},"Ô":{"ha":1182,"x_min":50,"x_max":1125,"o":"m 746 699 l 222 664 l 197 210 l 778 194 l 746 699 m 1083 307 q 813 -33 1086 -10 l 379 -18 q 61 317 129 -24 l 50 750 q 136 978 63 875 q 339 1093 210 1078 l 815 1083 q 1108 722 1125 1065 l 1083 307 m 785 1138 l 642 1138 l 589 1256 l 539 1135 l 400 1129 l 490 1317 l 692 1318 l 785 1138 z "},"Õ":{"ha":1182,"x_min":50,"x_max":1125,"o":"m 746 699 l 222 664 l 197 210 l 778 194 l 746 699 m 1083 307 q 813 -33 1086 -10 l 379 -18 q 61 317 129 -24 l 50 750 q 136 978 63 875 q 339 1093 210 1078 l 815 1083 q 1108 722 1125 1065 l 1083 307 m 801 1264 q 674 1085 788 1083 q 563 1139 628 1082 q 539 1067 497 1196 l 399 1119 q 526 1297 417 1299 q 638 1231 578 1294 q 660 1314 699 1165 l 801 1264 z "},"Ö":{"ha":1182,"x_min":50,"x_max":1125,"o":"m 746 699 l 222 664 l 197 210 l 778 194 l 746 699 m 1083 307 q 813 -33 1086 -10 l 379 -18 q 61 317 129 -24 l 50 750 q 136 978 63 875 q 339 1093 210 1078 l 815 1083 q 1108 722 1125 1065 l 1083 307 m 646 1119 l 649 1306 l 851 1304 l 822 1121 l 646 1119 m 353 1308 l 551 1306 l 549 1118 l 354 1117 l 353 1308 z "},"Ø":{"ha":1182,"x_min":50,"x_max":1125,"o":"m 746 699 l 222 664 l 197 210 l 778 194 l 746 699 m 1083 307 q 813 -33 1086 -10 l 379 -18 q 61 317 129 -24 l 50 750 q 136 978 63 875 q 339 1093 210 1078 l 815 1083 q 1108 722 1125 1065 l 1083 307 m 782 1089 l 492 -31 l 289 -17 l 661 1086 l 782 1089 z "},"Ù":{"ha":1149,"x_min":24,"x_max":1096,"o":"m 1036 328 q 779 -21 1040 -44 l 385 -35 q 115 311 106 -15 l 24 1082 l 390 1100 l 438 271 l 826 275 l 878 1022 l 1096 1040 l 1036 328 m 685 1115 l 531 1104 l 379 1299 l 601 1285 l 685 1115 z "},"Ú":{"ha":1149,"x_min":24,"x_max":1096,"o":"m 1036 328 q 779 -21 1040 -44 l 385 -35 q 115 311 106 -15 l 24 1082 l 390 1100 l 438 271 l 826 275 l 878 1022 l 1096 1040 l 1036 328 m 788 1294 l 657 1106 l 504 1096 l 606 1293 l 788 1294 z "},"Û":{"ha":1149,"x_min":24,"x_max":1096,"o":"m 1036 328 q 779 -21 1040 -44 l 385 -35 q 115 311 106 -15 l 24 1082 l 390 1100 l 438 271 l 826 275 l 878 1022 l 1096 1040 l 1036 328 m 813 1138 l 669 1138 l 617 1256 l 567 1135 l 428 1129 l 518 1317 l 719 1318 l 813 1138 z "},"Ü":{"ha":1149,"x_min":24,"x_max":1096,"o":"m 1036 328 q 779 -21 1040 -44 l 385 -35 q 115 311 106 -15 l 24 1082 l 390 1100 l 438 271 l 826 275 l 878 1022 l 1096 1040 l 1036 328 m 646 1119 l 649 1306 l 851 1304 l 822 1121 l 646 1119 m 353 1308 l 551 1306 l 549 1118 l 354 1117 l 353 1308 z "},"à":{"ha":1117,"x_min":32,"x_max":1076,"o":"m 890 483 q 792 664 921 642 l 115 628 l 125 1042 l 688 1065 q 1033 679 1050 1086 l 1043 178 q 1076 0 1043 60 q 856 82 906 -15 q 688 -33 807 -19 l 396 -14 q 53 335 32 8 q 417 590 74 585 l 754 574 q 890 483 854 561 m 404 424 q 358 342 365 422 q 431 267 354 263 l 844 249 q 897 321 897 246 q 847 401 899 396 l 404 424 m 685 1115 l 531 1104 l 379 1299 l 601 1285 l 685 1115 z "},"á":{"ha":1117,"x_min":32,"x_max":1076,"o":"m 890 483 q 792 664 921 642 l 115 628 l 125 1042 l 688 1065 q 1033 679 1050 1086 l 1043 178 q 1076 0 1043 60 q 856 82 906 -15 q 688 -33 807 -19 l 396 -14 q 53 335 32 8 q 417 590 74 585 l 754 574 q 890 483 854 561 m 404 424 q 358 342 365 422 q 431 267 354 263 l 844 249 q 897 321 897 246 q 847 401 899 396 l 404 424 m 788 1294 l 657 1106 l 504 1096 l 606 1293 l 788 1294 z "},"â":{"ha":1117,"x_min":32,"x_max":1076,"o":"m 890 483 q 792 664 921 642 l 115 628 l 125 1042 l 688 1065 q 1033 679 1050 1086 l 1043 178 q 1076 0 1043 60 q 856 82 906 -15 q 688 -33 807 -19 l 396 -14 q 53 335 32 8 q 417 590 74 585 l 754 574 q 890 483 854 561 m 404 424 q 358 342 365 422 q 431 267 354 263 l 844 249 q 897 321 897 246 q 847 401 899 396 l 404 424 m 785 1138 l 642 1138 l 589 1256 l 539 1135 l 400 1129 l 490 1317 l 692 1318 l 785 1138 z "},"ã":{"ha":1117,"x_min":32,"x_max":1076,"o":"m 890 483 q 792 664 921 642 l 115 628 l 125 1042 l 688 1065 q 1033 679 1050 1086 l 1043 178 q 1076 0 1043 60 q 856 82 906 -15 q 688 -33 807 -19 l 396 -14 q 53 335 32 8 q 417 590 74 585 l 754 574 q 890 483 854 561 m 404 424 q 358 342 365 422 q 431 267 354 263 l 844 249 q 897 321 897 246 q 847 401 899 396 l 404 424 m 801 1264 q 674 1085 788 1083 q 563 1139 628 1082 q 539 1067 497 1196 l 399 1119 q 526 1297 417 1299 q 638 1231 578 1294 q 660 1314 699 1165 l 801 1264 z "},"ä":{"ha":1117,"x_min":32,"x_max":1076,"o":"m 646 1119 l 649 1306 l 851 1304 l 822 1121 l 646 1119 m 353 1308 l 551 1306 l 549 1118 l 354 1117 l 353 1308 m 404 424 q 358 342 365 422 q 431 267 354 263 l 844 249 q 897 321 897 246 q 847 401 899 396 l 404 424 m 890 483 q 792 664 921 642 l 115 628 l 125 1042 l 688 1065 q 1033 679 1050 1086 l 1043 178 q 1076 0 1043 60 q 856 82 906 -15 q 688 -33 807 -19 l 396 -14 q 53 335 32 8 q 417 590 74 585 l 754 574 q 890 483 854 561 z "},"å":{"ha":1117,"x_min":32,"x_max":1076,"o":"m 574 1101 q 600 1047 574 1069 q 663 1025 626 1025 q 725 1047 699 1025 q 751 1101 751 1069 q 725 1156 751 1133 q 663 1178 699 1178 q 600 1156 626 1178 q 574 1101 574 1133 m 471 1157 q 485 1230 471 1196 q 525 1289 500 1264 q 584 1328 550 1314 q 657 1343 618 1343 q 730 1328 696 1343 q 790 1289 764 1314 q 830 1230 815 1264 q 844 1157 844 1196 q 830 1085 844 1118 q 790 1026 815 1051 q 730 987 764 1001 q 657 972 696 972 q 584 987 618 972 q 525 1026 550 1001 q 485 1085 500 1051 q 471 1157 471 1118 m 404 424 q 358 342 365 422 q 431 267 354 263 l 844 249 q 897 321 897 246 q 847 401 899 396 l 404 424 m 890 483 q 792 664 921 642 l 115 628 l 125 1042 l 688 1065 q 1033 679 1050 1086 l 1043 178 q 1076 0 1043 60 q 856 82 906 -15 q 688 -33 807 -19 l 396 -14 q 53 335 32 8 q 417 590 74 585 l 754 574 q 890 483 854 561 z "},"æ":{"ha":1010,"x_min":24,"x_max":940,"o":"m 346 343 l 511 336 l 521 660 l 346 343 m 938 -12 l 511 -43 l 501 207 l 381 208 l 321 -4 l 24 -33 l 483 1117 l 929 1113 l 910 565 l 626 551 l 629 340 l 888 385 l 922 269 l 685 215 l 692 128 l 940 156 l 938 -12 z "},"ç":{"ha":1136,"x_min":44,"x_max":1090,"o":"m 1065 143 q 831 -8 1031 24 l 376 -62 q 93 303 57 -4 l 51 738 q 361 1096 44 1053 l 832 1103 q 1090 917 1057 1074 l 900 600 l 844 704 l 226 736 l 256 225 l 817 236 l 867 293 l 1065 143 m 774 -200 q 638 -324 763 -332 l 563 -310 l 565 -242 l 678 -260 q 726 -208 724 -262 q 690 -156 729 -156 l 581 -160 l 643 -22 l 742 -18 l 715 -75 q 774 -200 775 -103 z "},"è":{"ha":1126,"x_min":38,"x_max":1071,"o":"m 721 1100 q 1058 700 1071 1072 q 690 354 1067 363 l 371 368 q 440 232 371 247 l 985 257 l 963 -12 l 475 8 q 82 357 78 -8 l 49 732 q 419 1086 38 1083 l 714 1100 l 721 1100 m 313 679 q 225 525 208 671 l 678 531 q 747 600 750 525 q 692 671 746 675 l 313 679 m 685 1115 l 531 1104 l 379 1299 l 601 1285 l 685 1115 z "},"é":{"ha":1126,"x_min":38,"x_max":1071,"o":"m 721 1100 q 1058 700 1071 1072 q 690 354 1067 363 l 371 368 q 440 232 371 247 l 985 257 l 963 -12 l 475 8 q 82 357 78 -8 l 49 732 q 419 1086 38 1083 l 714 1100 l 721 1100 m 313 679 q 225 525 208 671 l 678 531 q 747 600 750 525 q 692 671 746 675 l 313 679 m 788 1294 l 657 1106 l 504 1096 l 606 1293 l 788 1294 z "},"ê":{"ha":1126,"x_min":38,"x_max":1071,"o":"m 721 1100 q 1058 700 1071 1072 q 690 354 1067 363 l 371 368 q 440 232 371 247 l 985 257 l 963 -12 l 475 8 q 82 357 78 -8 l 49 732 q 419 1086 38 1083 l 714 1100 l 721 1100 m 313 679 q 225 525 208 671 l 678 531 q 747 600 750 525 q 692 671 746 675 l 313 679 m 785 1138 l 642 1138 l 589 1256 l 539 1135 l 400 1129 l 490 1317 l 692 1318 l 785 1138 z "},"ë":{"ha":1126,"x_min":38,"x_max":1071,"o":"m 646 1119 l 649 1306 l 851 1304 l 822 1121 l 646 1119 m 353 1308 l 551 1306 l 549 1118 l 354 1117 l 353 1308 m 313 679 q 225 525 208 671 l 678 531 q 747 600 750 525 q 692 671 746 675 l 313 679 m 721 1100 q 1058 700 1071 1072 q 690 354 1067 363 l 371 368 q 440 232 371 247 l 985 257 l 963 -12 l 475 8 q 82 357 78 -8 l 49 732 q 419 1086 38 1083 l 714 1100 l 721 1100 z "},"ì":{"ha":363,"x_min":-25,"x_max":314,"o":"m 233 10 l 54 -28 l 17 1115 l 314 1079 l 233 10 m 281 1115 l 126 1104 l -25 1299 l 197 1285 l 281 1115 z "},"í":{"ha":363,"x_min":17,"x_max":332,"o":"m 233 10 l 54 -28 l 17 1115 l 314 1079 l 233 10 m 332 1294 l 201 1106 l 49 1096 l 150 1293 l 332 1294 z "},"î":{"ha":363,"x_min":-21,"x_max":364,"o":"m 233 10 l 54 -28 l 17 1115 l 314 1079 l 233 10 m 364 1138 l 221 1138 l 168 1256 l 118 1135 l -21 1129 l 69 1317 l 271 1318 l 364 1138 z "},"ï":{"ha":363,"x_min":-74,"x_max":425,"o":"m 219 1119 l 222 1306 l 425 1304 l 396 1121 l 219 1119 m -74 1308 l 125 1306 l 122 1118 l -72 1117 l -74 1308 m 233 10 l 54 -28 l 17 1115 l 314 1079 l 233 10 z "},"ñ":{"ha":1088,"x_min":18,"x_max":1028,"o":"m 18 1107 q 247 960 213 1079 q 438 1089 329 1096 l 728 1093 q 1028 764 1025 1086 l 1003 -6 l 764 -4 l 790 676 l 340 681 l 289 -35 l 51 3 l 18 1107 m 801 1264 q 674 1085 788 1083 q 563 1139 628 1082 q 539 1067 497 1196 l 399 1119 q 526 1297 417 1299 q 638 1231 578 1294 q 660 1314 699 1165 l 801 1264 z "},"ò":{"ha":1182,"x_min":50,"x_max":1125,"o":"m 746 699 l 222 664 l 197 210 l 778 194 l 746 699 m 1083 307 q 813 -33 1086 -10 l 379 -18 q 61 317 129 -24 l 50 750 q 136 978 63 875 q 339 1093 210 1078 l 815 1083 q 1108 722 1125 1065 l 1083 307 m 685 1115 l 531 1104 l 379 1299 l 601 1285 l 685 1115 z "},"ó":{"ha":1182,"x_min":50,"x_max":1125,"o":"m 746 699 l 222 664 l 197 210 l 778 194 l 746 699 m 1083 307 q 813 -33 1086 -10 l 379 -18 q 61 317 129 -24 l 50 750 q 136 978 63 875 q 339 1093 210 1078 l 815 1083 q 1108 722 1125 1065 l 1083 307 m 788 1294 l 657 1106 l 504 1096 l 606 1293 l 788 1294 z "},"ô":{"ha":1182,"x_min":50,"x_max":1125,"o":"m 746 699 l 222 664 l 197 210 l 778 194 l 746 699 m 1083 307 q 813 -33 1086 -10 l 379 -18 q 61 317 129 -24 l 50 750 q 136 978 63 875 q 339 1093 210 1078 l 815 1083 q 1108 722 1125 1065 l 1083 307 m 785 1138 l 642 1138 l 589 1256 l 539 1135 l 400 1129 l 490 1317 l 692 1318 l 785 1138 z "},"õ":{"ha":1182,"x_min":50,"x_max":1125,"o":"m 746 699 l 222 664 l 197 210 l 778 194 l 746 699 m 1083 307 q 813 -33 1086 -10 l 379 -18 q 61 317 129 -24 l 50 750 q 136 978 63 875 q 339 1093 210 1078 l 815 1083 q 1108 722 1125 1065 l 1083 307 m 801 1264 q 674 1085 788 1083 q 563 1139 628 1082 q 539 1067 497 1196 l 399 1119 q 526 1297 417 1299 q 638 1231 578 1294 q 660 1314 699 1165 l 801 1264 z "},"ö":{"ha":1182,"x_min":50,"x_max":1125,"o":"m 646 1119 l 649 1306 l 851 1304 l 822 1121 l 646 1119 m 353 1308 l 551 1306 l 549 1118 l 354 1117 l 353 1308 m 1083 307 q 813 -33 1086 -10 l 379 -18 q 61 317 129 -24 l 50 750 q 136 978 63 875 q 339 1093 210 1078 l 815 1083 q 1108 722 1125 1065 l 1083 307 m 746 699 l 222 664 l 197 210 l 778 194 l 746 699 z "},"÷":{"ha":867,"x_min":75,"x_max":742,"o":"m 308 592 l 333 782 l 539 765 l 517 594 l 308 592 m 336 121 l 321 306 l 526 289 l 485 106 l 336 121 m 75 399 l 103 499 l 742 557 l 726 358 l 75 399 z "},"ø":{"ha":1182,"x_min":50,"x_max":1125,"o":"m 746 699 l 222 664 l 197 210 l 778 194 l 746 699 m 1083 307 q 813 -33 1086 -10 l 379 -18 q 61 317 129 -24 l 50 750 q 136 978 63 875 q 339 1093 210 1078 l 815 1083 q 1108 722 1125 1065 l 1083 307 m 782 1089 l 492 -31 l 289 -17 l 661 1086 l 782 1089 z "},"ù":{"ha":1149,"x_min":24,"x_max":1096,"o":"m 1036 328 q 779 -21 1040 -44 l 385 -35 q 115 311 106 -15 l 24 1082 l 390 1100 l 438 271 l 826 275 l 878 1022 l 1096 1040 l 1036 328 m 685 1115 l 531 1104 l 379 1299 l 601 1285 l 685 1115 z "},"ú":{"ha":1149,"x_min":24,"x_max":1096,"o":"m 1036 328 q 779 -21 1040 -44 l 385 -35 q 115 311 106 -15 l 24 1082 l 390 1100 l 438 271 l 826 275 l 878 1022 l 1096 1040 l 1036 328 m 788 1294 l 657 1106 l 504 1096 l 606 1293 l 788 1294 z "},"û":{"ha":1149,"x_min":24,"x_max":1096,"o":"m 1036 328 q 779 -21 1040 -44 l 385 -35 q 115 311 106 -15 l 24 1082 l 390 1100 l 438 271 l 826 275 l 878 1022 l 1096 1040 l 1036 328 m 813 1138 l 669 1138 l 617 1256 l 567 1135 l 428 1129 l 518 1317 l 719 1318 l 813 1138 z "},"ü":{"ha":1149,"x_min":24,"x_max":1096,"o":"m 646 1119 l 649 1306 l 851 1304 l 822 1121 l 646 1119 m 353 1308 l 551 1306 l 549 1118 l 354 1117 l 353 1308 m 1036 328 q 779 -21 1040 -44 l 385 -35 q 115 311 106 -15 l 24 1082 l 390 1100 l 438 271 l 826 275 l 878 1022 l 1096 1040 l 1036 328 z "},"ÿ":{"ha":1015,"x_min":38,"x_max":975,"o":"m 975 1096 l 601 292 l 628 -24 l 346 -40 l 358 318 l 38 1149 l 310 1119 l 421 633 l 693 1113 l 975 1096 m 513 1119 l 515 1306 l 718 1304 l 689 1121 l 513 1119 m 219 1308 l 418 1306 l 415 1118 l 221 1117 l 219 1308 z "},"¡":{"ha":389,"x_min":71,"x_max":375,"o":"m 108 958 l 322 961 l 324 774 l 93 776 l 108 958 m 126 668 l 269 675 l 375 -236 l 71 -244 l 126 668 z "},"¿":{"ha":864,"x_min":74,"x_max":869,"o":"m 436 875 l 699 879 l 701 690 l 417 693 l 436 875 m 88 176 q 158 372 85 314 q 333 446 232 429 q 435 568 436 463 l 432 628 l 707 622 q 639 385 740 461 q 367 317 529 307 q 251 250 264 319 q 374 174 239 179 l 869 185 l 853 -210 l 406 -233 q 161 -135 249 -229 q 88 176 74 -40 z "},"¤":{"ha":1136,"x_min":13,"x_max":1090,"o":"m 247 311 l 256 225 l 817 236 l 867 293 l 1065 143 q 831 -8 1031 24 l 376 -62 q 86 311 69 -6 l 31 311 l 26 433 l 79 433 l 75 496 l 19 497 l 13 624 l 63 625 l 51 738 q 361 1096 44 1053 l 832 1103 q 1090 917 1057 1074 l 900 600 l 844 704 l 226 736 l 232 629 l 624 638 l 590 489 l 190 486 l 189 424 l 538 432 l 504 313 l 247 311 z "},"¥":{"ha":1025,"x_min":38,"x_max":975,"o":"m 601 111 l 628 -24 l 346 -40 l 329 110 l 163 110 l 157 233 l 371 239 l 374 333 l 143 329 l 136 456 l 307 458 l 38 1149 l 310 1119 l 457 558 l 693 1113 l 975 1096 l 635 465 l 788 469 l 775 326 l 535 324 l 542 233 l 783 232 l 742 113 l 601 111 z "},"œ":{"ha":1182,"x_min":53,"x_max":1131,"o":"m 576 667 l 231 654 l 231 243 l 569 256 l 576 667 m 1071 7 l 349 -26 q 150 86 231 -15 q 72 310 69 181 l 60 729 q 126 976 53 874 q 339 1093 199 1081 l 1131 1074 l 1093 717 l 733 685 l 742 536 l 1060 557 l 1039 386 l 710 369 l 713 260 l 1063 257 l 1071 7 z "},"Ÿ":{"ha":1015,"x_min":38,"x_max":975,"o":"m 510 1119 l 513 1306 l 715 1304 l 686 1121 l 510 1119 m 217 1308 l 415 1306 l 413 1118 l 218 1117 l 217 1308 m 975 1096 l 601 292 l 628 -24 l 346 -40 l 358 318 l 38 1149 l 310 1119 l 421 633 l 693 1113 l 975 1096 z "},"¢":{"ha":825,"x_min":85,"x_max":765,"o":"m 749 243 q 603 144 729 165 l 304 116 q 118 346 98 145 l 90 621 q 297 862 86 833 l 603 869 q 766 744 743 843 l 649 540 l 609 607 l 217 637 l 225 301 l 583 303 l 624 340 l 749 243 m 500 -97 l 376 -108 l 399 1131 l 522 1108 l 500 -97 z "},"˙":{"ha":742,"x_min":582,"x_max":788,"o":"m 788 1294 l 760 1096 l 582 1093 l 606 1293 l 788 1294 z "},"‹":{"ha":413,"x_min":8,"x_max":378,"o":"m 368 299 l 256 117 l 8 522 l 290 929 l 378 729 l 197 544 l 368 299 z "},"›":{"ha":415,"x_min":33,"x_max":404,"o":"m 404 517 l 157 114 l 39 300 l 189 514 l 33 728 l 146 931 l 404 517 z "},"ˇ":{"ha":882,"x_min":411,"x_max":796,"o":"m 411 1310 l 554 1310 l 607 1192 l 657 1313 l 796 1318 l 706 1131 l 504 1129 l 411 1310 z "},"˘":{"ha":960,"x_min":356,"x_max":740,"o":"m 499 1310 q 549 1206 483 1215 q 601 1313 614 1217 l 740 1318 q 549 1113 726 1121 q 356 1310 364 1114 l 499 1310 z "},"˛":{"ha":1125,"x_min":504,"x_max":718,"o":"m 507 -165 q 565 -40 504 -68 l 539 17 l 638 13 l 700 -125 l 590 -121 q 554 -174 551 -121 q 603 -225 557 -228 l 715 -207 l 718 -275 l 643 -289 q 507 -165 518 -297 z "},"«":{"ha":689,"x_min":8,"x_max":651,"o":"m 642 299 l 529 117 l 282 522 l 564 929 l 651 729 l 471 544 l 642 299 m 368 299 l 256 117 l 8 522 l 290 929 l 378 729 l 197 544 l 368 299 z "},"®":{"ha":872,"x_min":33,"x_max":836,"o":"m 694 488 q 526 349 678 350 l 653 182 l 492 178 l 401 365 l 350 360 l 346 188 l 246 178 l 215 763 l 542 767 q 694 488 731 765 m 288 524 l 293 471 l 583 449 q 618 497 619 463 q 581 532 617 532 l 288 524 m 82 478 q 110 324 82 396 q 185 199 138 253 q 297 115 233 146 q 435 85 361 85 q 573 115 508 85 q 685 199 638 146 q 761 324 733 253 q 789 478 789 396 q 761 631 789 558 q 685 756 733 703 q 573 841 638 810 q 435 872 508 872 q 297 841 361 872 q 185 756 233 810 q 110 631 138 703 q 82 478 82 558 m 33 474 q 65 651 33 568 q 151 797 96 735 q 278 896 206 860 q 435 932 351 932 q 591 896 518 932 q 719 797 664 860 q 805 651 774 735 q 836 474 836 568 q 805 296 836 379 q 719 150 774 213 q 591 51 664 88 q 435 15 518 15 q 278 51 351 15 q 151 150 206 88 q 65 296 96 213 q 33 474 33 379 z "},"©":{"ha":1150,"x_min":38,"x_max":1100,"o":"m 860 304 q 726 215 842 235 l 454 190 q 286 397 267 217 l 260 643 q 449 860 256 833 l 726 865 q 875 753 854 842 l 768 571 l 732 631 l 375 658 l 383 357 l 708 358 l 746 392 l 860 304 m 88 549 q 125 360 88 449 q 228 204 163 271 q 383 99 294 138 q 571 60 471 60 q 760 95 671 60 q 914 194 849 131 q 1017 343 979 257 q 1056 529 1056 429 q 1019 720 1056 629 q 917 879 982 811 q 765 988 853 947 q 578 1028 678 1028 q 388 990 478 1028 q 232 888 299 953 q 126 736 165 824 q 88 549 88 649 m 38 539 q 81 744 38 649 q 197 912 124 840 q 367 1024 269 983 q 575 1065 465 1065 q 781 1022 685 1065 q 947 903 876 978 q 1059 728 1018 828 q 1100 519 1100 629 q 1058 315 1100 410 q 944 151 1017 221 q 775 42 872 82 q 568 3 678 3 q 362 45 458 3 q 193 160 265 88 q 79 331 121 233 q 38 539 38 428 z "},"»":{"ha":744,"x_min":33,"x_max":707,"o":"m 707 517 l 460 114 l 342 300 l 492 514 l 336 728 l 449 931 l 707 517 m 404 517 l 157 114 l 39 300 l 189 514 l 33 728 l 146 931 l 404 517 z "},"˝":{"ha":742,"x_min":476,"x_max":953,"o":"m 953 1301 l 778 1088 l 651 1093 l 824 1308 l 953 1301 m 758 1301 l 583 1088 l 476 1096 l 629 1308 l 758 1301 z "},"£":{"ha":1304,"x_min":63,"x_max":1072,"o":"m 103 -43 l 63 200 l 265 206 l 243 392 l 78 396 l 78 567 l 226 550 l 211 728 q 531 1114 204 1069 l 828 1126 q 1072 954 1036 1108 l 890 626 l 829 729 l 407 753 l 411 576 l 682 583 l 682 411 l 415 418 l 419 233 l 972 236 l 1003 -10 l 103 -43 z "},"™":{"ha":1171,"x_min":19,"x_max":485,"o":"m 462 902 l 311 894 l 309 552 l 198 544 l 179 905 l 44 898 l 20 1097 l 476 1124 l 462 902 m 485 588 l 485 588 l 485 588 l 485 588 l 485 588 q 485 588 485 588 q 485 588 485 588 l 485 588 q 485 588 485 588 l 485 588 l 485 588 l 485 588 l 485 588 l 485 588 l 485 588 l 485 588 z "},"#":{"ha":568,"x_min":50,"x_max":517,"o":"m 260 406 l 342 399 l 332 569 l 244 569 l 260 406 m 514 279 l 457 286 l 453 211 l 332 206 l 332 311 l 269 318 l 272 196 l 106 204 l 111 288 l 54 288 l 56 444 l 111 439 l 108 551 l 51 549 l 50 714 l 110 704 l 110 800 l 221 810 l 208 694 l 289 694 l 289 800 l 472 794 l 461 706 l 515 707 l 517 543 l 460 550 l 458 439 l 515 438 l 514 279 z "},"!":{"ha":389,"x_min":38,"x_max":342,"o":"m 304 -17 l 90 -19 l 89 168 l 319 165 l 304 -17 m 286 274 l 143 267 l 38 1178 l 342 1186 l 286 274 z "},"\"":{"ha":536,"x_min":43,"x_max":489,"o":"m 489 1178 l 444 800 l 290 806 l 279 1065 l 246 760 l 108 804 l 43 1185 l 489 1178 z "},"―":{"ha":701,"x_min":61,"x_max":646,"o":"m 604 379 l 68 372 l 61 668 l 646 664 l 604 379 z "},"Ð":{"ha":1233,"x_min":61,"x_max":1176,"o":"m 819 733 l 228 667 l 229 213 l 819 208 l 819 733 m 1139 307 q 869 -24 1139 -7 l 89 -19 l 92 1060 l 857 1132 q 1167 731 1176 1122 l 1139 307 m 460 288 l 64 282 l 61 575 l 492 571 l 460 288 z "},"×":{"ha":857,"x_min":47,"x_max":710,"o":"m 125 326 l 328 586 l 47 747 l 138 872 l 369 674 l 499 890 l 617 857 l 414 576 l 710 406 l 624 243 l 381 514 l 211 246 l 125 326 z "},"Ý":{"ha":1015,"x_min":56,"x_max":981,"o":"m 981 1096 l 607 297 l 621 -19 l 347 -46 l 364 324 l 56 1149 l 315 1125 l 433 628 l 690 1106 l 981 1096 m 644 1294 l 514 1106 l 361 1096 l 463 1293 l 644 1294 z "},"Þ":{"ha":767,"x_min":44,"x_max":707,"o":"m 153 386 l 574 381 l 569 517 l 163 501 l 153 386 m 54 -28 l 44 1100 l 313 1085 l 283 782 l 503 779 q 703 596 707 756 l 675 386 q 496 210 696 232 l 231 229 l 210 7 l 54 -28 z "},"ð":{"ha":1233,"x_min":-11,"x_max":1176,"o":"m 819 733 l 228 667 l 229 213 l 819 208 l 819 733 m 1139 307 q 869 -24 1139 -7 l 89 -19 l 92 1060 l 857 1132 q 1167 731 1176 1122 l 1139 307 m 388 285 l -8 279 l -11 572 l 419 568 l 388 285 z "},"ý":{"ha":1015,"x_min":56,"x_max":981,"o":"m 981 1096 l 607 297 l 621 -19 l 347 -46 l 364 324 l 56 1149 l 315 1125 l 433 628 l 690 1106 l 981 1096 m 642 1294 l 511 1106 l 358 1096 l 460 1293 l 642 1294 z "},"þ":{"ha":767,"x_min":44,"x_max":707,"o":"m 153 386 l 574 381 l 569 517 l 163 501 l 153 386 m 54 -28 l 44 1100 l 313 1085 l 283 782 l 503 779 q 703 596 707 756 l 675 386 q 496 210 696 232 l 231 229 l 210 7 l 54 -28 z "},"Ă":{"ha":1117,"x_min":32,"x_max":1076,"o":"m 890 483 q 792 664 921 642 l 115 628 l 125 1042 l 688 1065 q 1033 679 1050 1086 l 1043 178 q 1076 0 1043 60 q 856 82 906 -15 q 688 -33 807 -19 l 396 -14 q 53 335 32 8 q 417 590 74 585 l 754 574 q 890 483 854 561 m 404 424 q 358 342 365 422 q 431 267 354 263 l 844 249 q 897 321 897 246 q 847 401 899 396 l 404 424 m 499 1310 q 549 1206 483 1215 q 601 1313 614 1217 l 740 1318 q 549 1113 726 1121 q 356 1310 364 1114 l 499 1310 z "},"Ĺ":{"ha":900,"x_min":3,"x_max":900,"o":"m 874 -14 l 57 -56 l 3 1115 l 422 1079 l 318 206 l 900 258 l 874 -14 m 386 1294 l 256 1106 l 103 1096 l 204 1293 l 386 1294 z "},"Ć":{"ha":1136,"x_min":44,"x_max":1090,"o":"m 1065 143 q 831 -8 1031 24 l 371 -50 q 65 286 64 -47 l 51 738 q 361 1096 44 1053 l 832 1103 q 1090 917 1057 1074 l 900 600 l 844 704 l 226 736 l 256 225 l 817 236 l 867 293 l 1065 143 m 788 1294 l 657 1106 l 504 1096 l 606 1293 l 788 1294 z "},"Č":{"ha":1136,"x_min":44,"x_max":1090,"o":"m 1065 143 q 831 -8 1031 24 l 371 -50 q 65 286 64 -47 l 51 738 q 361 1096 44 1053 l 832 1103 q 1090 917 1057 1074 l 900 600 l 844 704 l 226 736 l 256 225 l 817 236 l 867 293 l 1065 143 m 342 1310 l 485 1310 l 538 1192 l 588 1313 l 726 1318 l 636 1131 l 435 1129 l 342 1310 z "},"Ą":{"ha":1117,"x_min":32,"x_max":1076,"o":"m 890 483 q 792 664 921 642 l 115 628 l 125 1042 l 688 1065 q 1033 679 1050 1086 l 1043 178 q 1076 0 1043 60 q 856 82 906 -15 q 688 -33 807 -19 l 396 -14 q 53 335 32 8 q 417 590 74 585 l 754 574 q 890 483 854 561 m 404 424 q 358 342 365 422 q 431 267 354 263 l 844 249 q 897 321 897 246 q 847 401 899 396 l 404 424 m 507 -165 q 565 -40 504 -68 l 539 17 l 638 13 l 700 -125 l 590 -121 q 554 -174 551 -121 q 603 -225 557 -228 l 715 -207 l 718 -275 l 643 -289 q 507 -165 518 -297 z "},"Ş":{"ha":1068,"x_min":46,"x_max":1008,"o":"m 1001 222 q 651 -18 996 -25 l 86 -33 l 113 263 l 726 217 q 792 292 788 210 q 710 372 797 374 l 393 379 q 63 717 46 383 q 383 1088 81 1056 l 985 1108 l 985 624 l 404 681 q 326 600 326 674 q 378 532 326 526 l 697 542 q 1007 289 1008 551 l 1001 222 m 658 -175 q 522 -299 647 -307 l 447 -285 l 450 -217 l 563 -235 q 611 -183 608 -237 q 575 -131 614 -131 l 465 -135 l 528 3 l 626 7 l 600 -50 q 658 -175 660 -78 z "},"­":{"ha":547,"x_min":61,"x_max":492,"o":"m 460 379 l 64 374 l 61 667 l 492 663 l 460 379 z "},"ą":{"ha":1117,"x_min":32,"x_max":1076,"o":"m 890 483 q 792 664 921 642 l 115 628 l 125 1042 l 688 1065 q 1033 679 1050 1086 l 1043 178 q 1076 0 1043 60 q 856 82 906 -15 q 688 -33 807 -19 l 396 -14 q 53 335 32 8 q 417 590 74 585 l 754 574 q 890 483 854 561 m 404 424 q 358 342 365 422 q 431 267 354 263 l 844 249 q 897 321 897 246 q 847 401 899 396 l 404 424 m 507 -165 q 565 -40 504 -68 l 539 17 l 638 13 l 700 -125 l 590 -121 q 554 -174 551 -121 q 603 -225 557 -228 l 715 -207 l 718 -275 l 643 -289 q 507 -165 518 -297 z "},"ş":{"ha":1068,"x_min":46,"x_max":1008,"o":"m 1001 222 q 651 -18 996 -25 l 86 -33 l 113 263 l 726 217 q 792 292 788 210 q 710 372 797 374 l 393 379 q 63 717 46 383 q 383 1088 81 1056 l 985 1108 l 985 624 l 404 681 q 326 600 326 674 q 378 532 326 526 l 697 542 q 1007 289 1008 551 l 1001 222 m 656 -175 q 519 -299 644 -307 l 444 -285 l 447 -217 l 560 -235 q 608 -183 606 -237 q 572 -131 611 -131 l 463 -135 l 525 3 l 624 7 l 597 -50 q 656 -175 657 -78 z "},"Ľ":{"ha":900,"x_min":3,"x_max":900,"o":"m 874 -14 l 57 -56 l 3 1115 l 422 1079 l 318 206 l 900 258 l 874 -14 m 679 942 l 585 692 l 481 793 l 554 925 l 450 915 l 465 1135 l 696 1111 l 679 942 z "},"ľ":{"ha":900,"x_min":3,"x_max":900,"o":"m 874 -14 l 57 -56 l 3 1115 l 422 1079 l 318 206 l 900 258 l 874 -14 m 679 939 l 585 689 l 481 790 l 554 922 l 450 913 l 465 1132 l 696 1108 l 679 939 z "},"Ś":{"ha":1068,"x_min":46,"x_max":1008,"o":"m 1001 222 q 651 -18 996 -25 l 86 -33 l 113 263 l 726 217 q 792 292 788 210 q 710 372 797 374 l 393 379 q 63 717 46 383 q 383 1088 81 1056 l 985 1108 l 985 624 l 404 681 q 326 600 326 674 q 378 532 326 526 l 697 542 q 1007 289 1008 551 l 1001 222 m 788 1294 l 657 1106 l 504 1096 l 606 1293 l 788 1294 z "},"Ť":{"ha":994,"x_min":15,"x_max":940,"o":"m 897 689 l 589 674 l 567 -3 l 363 -31 l 336 706 l 61 681 l 15 1089 l 940 1122 l 897 689 m 289 1310 l 432 1310 l 485 1192 l 535 1313 l 674 1318 l 583 1131 l 382 1129 l 289 1310 z "},"Ž":{"ha":1068,"x_min":57,"x_max":1006,"o":"m 961 -4 l 88 -56 l 74 232 l 636 664 l 57 651 l 69 1099 l 925 1088 l 1006 719 l 329 254 l 963 328 l 961 -4 m 411 1307 l 554 1307 l 607 1189 l 657 1310 l 796 1315 l 706 1128 l 504 1126 l 411 1307 z "},"Ź":{"ha":1068,"x_min":57,"x_max":1006,"o":"m 961 -4 l 88 -56 l 74 232 l 636 664 l 57 651 l 69 1099 l 925 1088 l 1006 719 l 329 254 l 963 328 l 961 -4 m 713 1294 l 582 1106 l 429 1096 l 531 1293 l 713 1294 z "},"Š":{"ha":1068,"x_min":46,"x_max":1008,"o":"m 1001 222 q 651 -18 996 -25 l 86 -33 l 113 263 l 726 217 q 792 292 788 210 q 710 372 797 374 l 393 379 q 63 717 46 383 q 383 1088 81 1056 l 985 1108 l 985 624 l 404 681 q 326 600 326 674 q 378 532 326 526 l 697 542 q 1007 289 1008 551 l 1001 222 m 411 1310 l 554 1310 l 607 1192 l 657 1313 l 796 1318 l 706 1131 l 504 1129 l 411 1310 z "},"Ŕ":{"ha":1243,"x_min":33,"x_max":1203,"o":"m 200 639 l 210 539 l 869 497 q 947 590 951 525 q 864 657 944 657 l 200 639 m 1122 571 q 742 308 1085 314 l 1029 -8 l 663 -15 l 458 340 l 339 329 l 332 1 l 104 -17 l 33 1093 l 776 1100 q 1122 571 1203 1097 m 788 1294 l 657 1106 l 504 1096 l 606 1293 l 788 1294 z "},"Ł":{"ha":963,"x_min":-51,"x_max":963,"o":"m 936 -14 l 119 -56 l 65 1115 l 485 1079 l 381 206 l 963 258 l 936 -14 m 604 724 l 219 441 l -50 444 l 444 724 l 604 724 z "},"Ż":{"ha":1068,"x_min":57,"x_max":1006,"o":"m 961 -4 l 88 -56 l 74 232 l 636 664 l 57 651 l 69 1099 l 925 1088 l 1006 719 l 329 254 l 963 328 l 961 -4 m 663 1313 l 635 1114 l 457 1111 l 481 1311 l 663 1313 z "},"Ę":{"ha":1126,"x_min":38,"x_max":1071,"o":"m 721 1100 q 1058 700 1071 1072 q 690 354 1067 363 l 371 368 q 440 232 371 247 l 985 257 l 963 -12 l 475 8 q 82 357 78 -8 l 49 732 q 419 1086 38 1083 l 714 1100 l 721 1100 m 313 679 q 225 525 208 671 l 678 531 q 747 600 750 525 q 692 671 746 675 l 313 679 m 507 -165 q 565 -40 504 -68 l 539 17 l 638 13 l 700 -125 l 590 -121 q 554 -174 551 -121 q 603 -225 557 -228 l 715 -207 l 718 -275 l 643 -289 q 507 -165 518 -297 z "},"Ě":{"ha":1126,"x_min":38,"x_max":1071,"o":"m 721 1100 q 1058 700 1071 1072 q 690 354 1067 363 l 371 368 q 440 232 371 247 l 985 257 l 963 -12 l 475 8 q 82 357 78 -8 l 49 732 q 419 1086 38 1083 l 714 1100 l 721 1100 m 313 679 q 225 525 208 671 l 678 531 q 747 600 750 525 q 692 671 746 675 l 313 679 m 411 1300 l 554 1300 l 607 1182 l 657 1303 l 796 1308 l 706 1121 l 504 1119 l 411 1300 z "},"Ď":{"ha":1233,"x_min":89,"x_max":1176,"o":"m 819 733 l 228 667 l 229 213 l 819 208 l 819 733 m 1139 307 q 869 -24 1139 -7 l 89 -19 l 92 1060 l 857 1132 q 1167 731 1176 1122 l 1139 307 m 411 1310 l 554 1310 l 607 1192 l 657 1313 l 796 1318 l 706 1131 l 504 1129 l 411 1310 z "},"Đ":{"ha":1271,"x_min":61,"x_max":1214,"o":"m 857 733 l 265 667 l 267 213 l 857 208 l 857 733 m 1176 307 q 907 -24 1176 -7 l 126 -19 l 129 1060 l 894 1132 q 1204 731 1214 1122 l 1176 307 m 460 304 l 64 299 l 61 592 l 492 588 l 460 304 z "},"Ń":{"ha":1088,"x_min":18,"x_max":1028,"o":"m 18 1107 q 247 960 213 1079 q 438 1089 329 1096 l 728 1093 q 1028 764 1025 1086 l 1003 -6 l 764 -4 l 790 676 l 340 681 l 289 -35 l 51 3 l 18 1107 m 788 1294 l 657 1106 l 504 1096 l 606 1293 l 788 1294 z "},"Ň":{"ha":1088,"x_min":18,"x_max":1028,"o":"m 18 1107 q 247 960 213 1079 q 438 1089 329 1096 l 728 1093 q 1028 764 1025 1086 l 1003 -6 l 764 -4 l 790 676 l 340 681 l 289 -35 l 51 3 l 18 1107 m 374 1310 l 517 1310 l 569 1192 l 619 1313 l 758 1318 l 668 1131 l 467 1129 l 374 1310 z "},"Ő":{"ha":1182,"x_min":50,"x_max":1125,"o":"m 746 699 l 222 664 l 197 210 l 778 194 l 746 699 m 1083 307 q 813 -33 1086 -10 l 379 -18 q 61 317 129 -24 l 50 750 q 136 978 63 875 q 339 1093 210 1078 l 815 1083 q 1108 722 1125 1065 l 1083 307 m 938 1329 l 763 1115 l 636 1121 l 808 1336 l 938 1329 m 743 1329 l 568 1115 l 461 1124 l 614 1336 l 743 1329 z "},"Ř":{"ha":1243,"x_min":33,"x_max":1203,"o":"m 200 639 l 210 539 l 869 497 q 947 590 951 525 q 864 657 944 657 l 200 639 m 1122 571 q 742 308 1085 314 l 1029 -8 l 663 -15 l 458 340 l 339 329 l 332 1 l 104 -17 l 33 1093 l 776 1100 q 1122 571 1203 1097 m 367 1310 l 510 1310 l 563 1192 l 613 1313 l 751 1318 l 661 1131 l 460 1129 l 367 1310 z "},"Ů":{"ha":1149,"x_min":24,"x_max":1096,"o":"m 1036 328 q 779 -21 1040 -44 l 385 -35 q 115 311 106 -15 l 24 1082 l 390 1100 l 438 271 l 826 275 l 878 1022 l 1096 1040 l 1036 328 m 574 1101 q 600 1047 574 1069 q 663 1025 626 1025 q 725 1047 699 1025 q 751 1101 751 1069 q 725 1156 751 1133 q 663 1178 699 1178 q 600 1156 626 1178 q 574 1101 574 1133 m 471 1157 q 485 1230 471 1196 q 525 1289 500 1264 q 584 1328 550 1314 q 657 1343 618 1343 q 730 1328 696 1343 q 790 1289 764 1314 q 830 1230 815 1264 q 844 1157 844 1196 q 830 1085 844 1118 q 790 1026 815 1051 q 730 987 764 1001 q 657 972 696 972 q 584 987 618 972 q 525 1026 550 1001 q 485 1085 500 1051 q 471 1157 471 1118 z "},"Ű":{"ha":1149,"x_min":24,"x_max":1096,"o":"m 1036 328 q 779 -21 1040 -44 l 385 -35 q 115 311 106 -15 l 24 1082 l 390 1100 l 438 271 l 826 275 l 878 1022 l 1096 1040 l 1036 328 m 953 1301 l 778 1088 l 651 1093 l 824 1308 l 953 1301 m 758 1301 l 583 1088 l 476 1096 l 629 1308 l 758 1301 z "},"Ţ":{"ha":994,"x_min":15,"x_max":940,"o":"m 897 689 l 589 674 l 567 -3 l 363 -31 l 336 706 l 61 681 l 15 1089 l 940 1122 l 897 689 m 547 -147 q 411 -271 536 -279 l 336 -257 l 339 -189 l 451 -207 q 500 -156 497 -210 q 464 -103 503 -103 l 354 -107 l 417 31 l 515 35 l 489 -22 q 547 -147 549 -50 z "},"ž":{"ha":1068,"x_min":57,"x_max":1006,"o":"m 961 -4 l 88 -56 l 74 232 l 636 664 l 57 651 l 69 1099 l 925 1088 l 1006 719 l 329 254 l 963 328 l 961 -4 m 347 1304 l 490 1304 l 543 1186 l 593 1307 l 732 1313 l 642 1125 l 440 1124 l 347 1304 z "},"ź":{"ha":1068,"x_min":57,"x_max":1006,"o":"m 961 -4 l 88 -56 l 74 232 l 636 664 l 57 651 l 69 1099 l 925 1088 l 1006 719 l 329 254 l 963 328 l 961 -4 m 710 1294 l 579 1106 l 426 1096 l 528 1293 l 710 1294 z "},"ś":{"ha":1068,"x_min":46,"x_max":1008,"o":"m 1001 222 q 651 -18 996 -25 l 86 -33 l 113 263 l 726 217 q 792 292 788 210 q 710 372 797 374 l 393 379 q 63 717 46 383 q 383 1088 81 1056 l 985 1108 l 985 624 l 404 681 q 326 600 326 674 q 378 532 326 526 l 697 542 q 1007 289 1008 551 l 1001 222 m 788 1294 l 657 1106 l 504 1096 l 606 1293 l 788 1294 z "},"ť":{"ha":994,"x_min":15,"x_max":940,"o":"m 897 689 l 589 674 l 567 -3 l 363 -31 l 336 706 l 61 681 l 15 1089 l 940 1122 l 897 689 m 286 1310 l 429 1310 l 482 1192 l 532 1313 l 671 1318 l 581 1131 l 379 1129 l 286 1310 z "},"š":{"ha":1068,"x_min":46,"x_max":1008,"o":"m 1001 222 q 651 -18 996 -25 l 86 -33 l 113 263 l 726 217 q 792 292 788 210 q 710 372 797 374 l 393 379 q 63 717 46 383 q 383 1088 81 1056 l 985 1108 l 985 624 l 404 681 q 326 600 326 674 q 378 532 326 526 l 697 542 q 1007 289 1008 551 l 1001 222 m 411 1310 l 554 1310 l 607 1192 l 657 1313 l 796 1318 l 706 1131 l 504 1129 l 411 1310 z "},"ł":{"ha":963,"x_min":-53,"x_max":963,"o":"m 936 -14 l 119 -56 l 65 1115 l 485 1079 l 381 206 l 963 258 l 936 -14 m 601 724 l 217 440 l -53 444 l 442 724 l 601 724 z "},"ż":{"ha":1068,"x_min":57,"x_max":1006,"o":"m 961 -4 l 88 -56 l 74 232 l 636 664 l 57 651 l 69 1099 l 925 1088 l 1006 719 l 329 254 l 963 328 l 961 -4 m 660 1313 l 632 1114 l 454 1111 l 478 1311 l 660 1313 z "},"ć":{"ha":1136,"x_min":44,"x_max":1090,"o":"m 1065 143 q 831 -8 1031 24 l 376 -62 q 93 303 57 -4 l 51 738 q 361 1096 44 1053 l 832 1103 q 1090 917 1057 1074 l 900 600 l 844 704 l 226 736 l 256 225 l 817 236 l 867 293 l 1065 143 m 788 1294 l 657 1106 l 504 1096 l 606 1293 l 788 1294 z "},"č":{"ha":1136,"x_min":44,"x_max":1090,"o":"m 1065 143 q 831 -8 1031 24 l 376 -62 q 93 303 57 -4 l 51 738 q 361 1096 44 1053 l 832 1103 q 1090 917 1057 1074 l 900 600 l 844 704 l 226 736 l 256 225 l 817 236 l 867 293 l 1065 143 m 339 1310 l 482 1310 l 535 1192 l 585 1313 l 724 1318 l 633 1131 l 432 1129 l 339 1310 z "},"ę":{"ha":1126,"x_min":38,"x_max":1071,"o":"m 721 1100 q 1058 700 1071 1072 q 690 354 1067 363 l 371 368 q 440 232 371 247 l 985 257 l 963 -12 l 475 8 q 82 357 78 -8 l 49 732 q 419 1086 38 1083 l 714 1100 l 721 1100 m 313 679 q 225 525 208 671 l 678 531 q 747 600 750 525 q 692 671 746 675 l 313 679 m 507 -165 q 565 -40 504 -68 l 539 17 l 638 13 l 700 -125 l 590 -121 q 554 -174 551 -121 q 603 -225 557 -228 l 715 -207 l 718 -275 l 643 -289 q 507 -165 518 -297 z "},"ě":{"ha":1126,"x_min":38,"x_max":1071,"o":"m 721 1100 q 1058 700 1071 1072 q 690 354 1067 363 l 371 368 q 440 232 371 247 l 985 257 l 963 -12 l 475 8 q 82 357 78 -8 l 49 732 q 419 1086 38 1083 l 714 1100 l 721 1100 m 313 679 q 225 525 208 671 l 678 531 q 747 600 750 525 q 692 671 746 675 l 313 679 m 383 1297 l 526 1297 l 579 1179 l 629 1300 l 768 1306 l 678 1118 l 476 1117 l 383 1297 z "},"ď":{"ha":1233,"x_min":89,"x_max":1176,"o":"m 819 733 l 228 667 l 229 213 l 819 208 l 819 733 m 1139 307 q 869 -24 1139 -7 l 89 -19 l 92 1060 l 857 1132 q 1167 731 1176 1122 l 1139 307 m 411 1310 l 554 1310 l 607 1192 l 657 1313 l 796 1318 l 706 1131 l 504 1129 l 411 1310 z "},"đ":{"ha":1271,"x_min":28,"x_max":1214,"o":"m 857 733 l 265 667 l 267 213 l 857 208 l 857 733 m 1176 307 q 907 -24 1176 -7 l 126 -19 l 129 1060 l 894 1132 q 1204 731 1214 1122 l 1176 307 m 426 301 l 31 296 l 28 589 l 458 585 l 426 301 z "},"ń":{"ha":1088,"x_min":18,"x_max":1028,"o":"m 18 1107 q 247 960 213 1079 q 438 1089 329 1096 l 728 1093 q 1028 764 1025 1086 l 1003 -6 l 764 -4 l 790 676 l 340 681 l 289 -35 l 51 3 l 18 1107 m 788 1294 l 657 1106 l 504 1096 l 606 1293 l 788 1294 z "},"ň":{"ha":1088,"x_min":18,"x_max":1028,"o":"m 18 1107 q 247 960 213 1079 q 438 1089 329 1096 l 728 1093 q 1028 764 1025 1086 l 1003 -6 l 764 -4 l 790 676 l 340 681 l 289 -35 l 51 3 l 18 1107 m 371 1310 l 514 1310 l 567 1192 l 617 1313 l 756 1318 l 665 1131 l 464 1129 l 371 1310 z "},"ő":{"ha":1182,"x_min":50,"x_max":1125,"o":"m 935 1329 l 760 1115 l 633 1121 l 806 1336 l 935 1329 m 740 1329 l 565 1115 l 458 1124 l 611 1336 l 740 1329 m 1083 307 q 813 -33 1086 -10 l 379 -18 q 61 317 129 -24 l 50 750 q 136 978 63 875 q 339 1093 210 1078 l 815 1083 q 1108 722 1125 1065 l 1083 307 m 746 699 l 222 664 l 197 210 l 778 194 l 746 699 z "},"ř":{"ha":1243,"x_min":33,"x_max":1203,"o":"m 200 639 l 210 539 l 869 497 q 947 590 951 525 q 864 657 944 657 l 200 639 m 1122 571 q 742 308 1085 314 l 1029 -8 l 663 -15 l 458 340 l 339 329 l 332 1 l 104 -17 l 33 1093 l 776 1100 q 1122 571 1203 1097 m 364 1310 l 507 1310 l 560 1192 l 610 1313 l 749 1318 l 658 1131 l 457 1129 l 364 1310 z "},"ů":{"ha":1149,"x_min":24,"x_max":1096,"o":"m 574 1101 q 600 1047 574 1069 q 663 1025 626 1025 q 725 1047 699 1025 q 751 1101 751 1069 q 725 1156 751 1133 q 663 1178 699 1178 q 600 1156 626 1178 q 574 1101 574 1133 m 471 1157 q 485 1230 471 1196 q 525 1289 500 1264 q 584 1328 550 1314 q 657 1343 618 1343 q 730 1328 696 1343 q 790 1289 764 1314 q 830 1230 815 1264 q 844 1157 844 1196 q 830 1085 844 1118 q 790 1026 815 1051 q 730 987 764 1001 q 657 972 696 972 q 584 987 618 972 q 525 1026 550 1001 q 485 1085 500 1051 q 471 1157 471 1118 m 1036 328 q 779 -21 1040 -44 l 385 -35 q 115 311 106 -15 l 24 1082 l 390 1100 l 438 271 l 826 275 l 878 1022 l 1096 1040 l 1036 328 z "},"ű":{"ha":1149,"x_min":24,"x_max":1096,"o":"m 953 1301 l 778 1088 l 651 1093 l 824 1308 l 953 1301 m 758 1301 l 583 1088 l 476 1096 l 629 1308 l 758 1301 m 1036 328 q 779 -21 1040 -44 l 385 -35 q 115 311 106 -15 l 24 1082 l 390 1100 l 438 271 l 826 275 l 878 1022 l 1096 1040 l 1036 328 z "},"ţ":{"ha":994,"x_min":15,"x_max":940,"o":"m 897 689 l 589 674 l 567 -3 l 363 -31 l 336 706 l 61 681 l 15 1089 l 940 1122 l 897 689 m 544 -147 q 408 -271 533 -279 l 333 -257 l 336 -189 l 449 -207 q 497 -156 494 -210 q 461 -103 500 -103 l 351 -107 l 414 31 l 513 35 l 486 -22 q 544 -147 546 -50 z "},"ŕ":{"ha":1243,"x_min":33,"x_max":1203,"o":"m 200 639 l 210 539 l 869 497 q 947 590 951 525 q 864 657 944 657 l 200 639 m 1122 571 q 742 308 1085 314 l 1029 -8 l 663 -15 l 458 340 l 339 329 l 332 1 l 104 -17 l 33 1093 l 776 1100 q 1122 571 1203 1097 m 788 1294 l 657 1106 l 504 1096 l 606 1293 l 788 1294 z "},"ă":{"ha":1117,"x_min":32,"x_max":1076,"o":"m 890 483 q 792 664 921 642 l 115 628 l 125 1042 l 688 1065 q 1033 679 1050 1086 l 1043 178 q 1076 0 1043 60 q 856 82 906 -15 q 688 -33 807 -19 l 396 -14 q 53 335 32 8 q 417 590 74 585 l 754 574 q 890 483 854 561 m 404 424 q 358 342 365 422 q 431 267 354 263 l 844 249 q 897 321 897 246 q 847 401 899 396 l 404 424 m 499 1310 q 549 1206 483 1215 q 601 1313 614 1217 l 740 1318 q 549 1113 726 1121 q 356 1310 364 1114 l 499 1310 z "},"ĺ":{"ha":900,"x_min":3,"x_max":900,"o":"m 874 -14 l 57 -56 l 3 1115 l 422 1079 l 318 206 l 900 258 l 874 -14 m 383 1294 l 253 1106 l 100 1096 l 201 1293 l 383 1294 z "},"Ğ":{"ha":1143,"x_min":39,"x_max":1082,"o":"m 1022 -4 l 839 -22 l 775 142 q 576 -19 771 -26 l 368 -14 q 82 300 119 -25 l 82 743 q 353 1096 39 1101 l 797 1099 q 1082 885 1004 1071 l 835 607 l 800 681 l 247 674 q 264 249 257 258 l 696 247 q 824 381 821 235 l 519 349 l 535 544 l 1060 590 l 1022 -4 m 499 1310 q 549 1206 483 1215 q 601 1313 614 1217 l 740 1318 q 549 1113 726 1121 q 356 1310 364 1114 l 499 1310 z "},"İ":{"ha":363,"x_min":17,"x_max":314,"o":"m 233 10 l 54 -28 l 17 1115 l 314 1079 l 233 10 m 276 1319 l 249 1121 l 71 1118 l 94 1318 l 276 1319 z "},"ğ":{"ha":1143,"x_min":39,"x_max":1082,"o":"m 1022 -4 l 839 -22 l 775 142 q 576 -19 771 -26 l 368 -14 q 82 300 119 -25 l 82 743 q 353 1096 39 1101 l 797 1099 q 1082 885 1004 1071 l 835 607 l 800 681 l 247 674 q 264 249 257 258 l 696 247 q 824 381 821 235 l 519 349 l 535 544 l 1060 590 l 1022 -4 m 499 1310 q 549 1206 483 1215 q 601 1313 614 1217 l 740 1318 q 549 1113 726 1121 q 356 1310 364 1114 l 499 1310 z "},"€":{"ha":1136,"x_min":13,"x_max":1090,"o":"m 247 311 l 256 225 l 817 236 l 867 293 l 1065 143 q 831 -8 1031 24 l 376 -62 q 86 311 69 -6 l 31 311 l 26 433 l 79 433 l 75 496 l 19 497 l 13 624 l 63 625 l 51 738 q 361 1096 44 1053 l 832 1103 q 1090 917 1057 1074 l 900 600 l 844 704 l 226 736 l 232 629 l 624 638 l 590 489 l 190 486 l 189 424 l 538 432 l 504 313 l 247 311 z "},"„":{"ha":528,"x_min":33,"x_max":490,"o":"m 244 6 l 156 -217 l 58 -125 l 124 -15 l 33 -17 l 42 157 l 260 171 l 244 6 m 475 6 l 386 -217 l 289 -125 l 354 -15 l 264 -17 l 272 157 l 490 171 l 475 6 z "}}}
